<?xml version="1.0" encoding="UTF-8" standalone="no"?>
<!-- Created with Inkscape (http://www.inkscape.org/) -->

<svg
   xmlns:dc="http://purl.org/dc/elements/1.1/"
   xmlns:cc="http://creativecommons.org/ns#"
   xmlns:rdf="http://www.w3.org/1999/02/22-rdf-syntax-ns#"
   xmlns:svg="http://www.w3.org/2000/svg"
   xmlns="http://www.w3.org/2000/svg"
   xmlns:sodipodi="http://sodipodi.sourceforge.net/DTD/sodipodi-0.dtd"
   xmlns:inkscape="http://www.inkscape.org/namespaces/inkscape"
   version="1.1"
   id="svg48"
   xml:space="preserve"
   width="657.63733"
   height="933.54266"
   viewBox="0 0 657.63733 933.54266"
   sodipodi:docname="esquemaCSW.svg"
   inkscape:version="0.92.2 (5c3e80d, 2017-08-06)"><metadata
     id="metadata54"><rdf:RDF><cc:Work
         rdf:about=""><dc:format>image/svg+xml</dc:format><dc:type
           rdf:resource="http://purl.org/dc/dcmitype/StillImage" /><dc:title></dc:title></cc:Work></rdf:RDF></metadata><defs
     id="defs52"><clipPath
       clipPathUnits="userSpaceOnUse"
       id="clipPath76"><path
         d="M 0,0 H 302.462 V 220.296 H 0 Z"
         id="path74"
         inkscape:connector-curvature="0" /></clipPath><clipPath
       clipPathUnits="userSpaceOnUse"
       id="clipPath320"><path
         d="M 0.059998,220.296 H 302.462 V 0.06 H 0.059998 Z"
         id="path318"
         inkscape:connector-curvature="0" /></clipPath></defs><sodipodi:namedview
     pagecolor="#ffffff"
     bordercolor="#666666"
     borderopacity="1"
     objecttolerance="10"
     gridtolerance="10"
     guidetolerance="10"
     inkscape:pageopacity="0"
     inkscape:pageshadow="2"
     inkscape:window-width="1920"
     inkscape:window-height="1021"
     id="namedview50"
     showgrid="false"
     inkscape:zoom="0.8901575"
     inkscape:cx="328.81866"
     inkscape:cy="466.77133"
     inkscape:window-x="0"
     inkscape:window-y="27"
     inkscape:window-maximized="1"
     inkscape:current-layer="g56" /><g
     id="g56"
     inkscape:groupmode="layer"
     inkscape:label="p02"
     transform="matrix(1.3333333,0,0,-1.3333333,0,933.54267)"><g
       transform="translate(112.96157,451.33454)"
       id="g68"><g
         id="g70"><g
           clip-path="url(#clipPath76)"
           id="g72"><path
             inkscape:connector-curvature="0"
             id="path78"
             style="fill:#000000;fill-opacity:1;fill-rule:nonzero;stroke:none"
             d="m 77.552,105.201 h 3.811 v 99.849 h -3.811 z" /><path
             inkscape:connector-curvature="0"
             id="path80"
             style="fill:#000000;fill-opacity:1;fill-rule:nonzero;stroke:none"
             d="m 106.797,105.201 h 3.811 V 205.25 h -3.811 z" /><g
             transform="translate(70.395,28.991)"
             id="g82"><path
               inkscape:connector-curvature="0"
               id="path84"
               style="fill:none;stroke:#000000;stroke-width:1.5;stroke-linecap:butt;stroke-linejoin:miter;stroke-miterlimit:4;stroke-dasharray:none;stroke-opacity:1"
               d="M 0,0 H -45.726 V 118.127 H 7.621" /><g
               transform="translate(47.443,-0.002)"
               id="g86"><path
                 inkscape:connector-curvature="0"
                 id="path88"
                 style="fill:none;stroke:#000000;stroke-width:1.5;stroke-linecap:butt;stroke-linejoin:miter;stroke-miterlimit:4;stroke-dasharray:none;stroke-opacity:1"
                 d="M 0,0 H 45.727 V 118.147 H -7.62" /></g></g><path
             inkscape:connector-curvature="0"
             id="path90"
             style="fill:none;stroke:#000000;stroke-width:0.40000001;stroke-linecap:butt;stroke-linejoin:miter;stroke-miterlimit:4;stroke-dasharray:0.82111, 0.13685;stroke-dashoffset:0;stroke-opacity:1"
             d="m 107.54,105.113 h 33.159" /><path
             inkscape:connector-curvature="0"
             id="path92"
             style="fill:none;stroke:#000000;stroke-width:0.25;stroke-linecap:butt;stroke-linejoin:miter;stroke-miterlimit:4;stroke-dasharray:1.1255, 0.14069;stroke-dashoffset:0;stroke-opacity:1"
             d="m 106.283,71.261 h 35.045" /><g
             transform="translate(138.344,104.773)"
             id="g94"><path
               inkscape:connector-curvature="0"
               id="path96"
               style="fill:none;stroke:#000000;stroke-width:0.5;stroke-linecap:butt;stroke-linejoin:miter;stroke-miterlimit:4;stroke-dasharray:none;stroke-opacity:1"
               d="M 0,0 V -33.084" /></g><g
             transform="translate(138.344,102.849)"
             id="g98"><path
               inkscape:connector-curvature="0"
               id="path100"
               style="fill:#000000;fill-opacity:1;fill-rule:evenodd;stroke:none"
               d="M 0,0 0.771,-0.769 0,1.924 -0.769,-0.769 0,0" /></g><g
             transform="translate(138.344,102.849)"
             id="g102"><path
               inkscape:connector-curvature="0"
               id="path104"
               style="fill:none;stroke:#000000;stroke-width:0.5;stroke-linecap:butt;stroke-linejoin:miter;stroke-miterlimit:4;stroke-dasharray:none;stroke-opacity:1"
               d="M 0,0 0.771,-0.769 0,1.924 -0.769,-0.769 Z" /></g><g
             transform="translate(138.344,73.612)"
             id="g106"><path
               inkscape:connector-curvature="0"
               id="path108"
               style="fill:#000000;fill-opacity:1;fill-rule:evenodd;stroke:none"
               d="M 0,0 -0.769,0.769 0,-1.923 0.771,0.769 0,0" /></g><g
             transform="translate(138.344,73.612)"
             id="g110"><path
               inkscape:connector-curvature="0"
               id="path112"
               style="fill:none;stroke:#000000;stroke-width:0.5;stroke-linecap:butt;stroke-linejoin:miter;stroke-miterlimit:4;stroke-dasharray:none;stroke-opacity:1"
               d="M 0,0 -0.769,0.769 0,-1.923 0.771,0.769 Z" /><g
               transform="translate(-56.723,87.3)"
               id="g114"><path
                 inkscape:connector-curvature="0"
                 id="path116"
                 style="fill:none;stroke:#000000;stroke-width:0.5;stroke-linecap:butt;stroke-linejoin:miter;stroke-miterlimit:4;stroke-dasharray:none;stroke-opacity:1"
                 d="M 0,0 H 24.833" /></g></g><g
             transform="translate(83.544,160.912)"
             id="g118"><path
               inkscape:connector-curvature="0"
               id="path120"
               style="fill:#000000;fill-opacity:1;fill-rule:evenodd;stroke:none"
               d="M 0,0 0.769,0.769 -1.923,0 0.769,-0.769 0,0" /></g><g
             transform="translate(83.544,160.912)"
             id="g122"><path
               inkscape:connector-curvature="0"
               id="path124"
               style="fill:none;stroke:#000000;stroke-width:0.5;stroke-linecap:butt;stroke-linejoin:miter;stroke-miterlimit:4;stroke-dasharray:none;stroke-opacity:1"
               d="M 0,0 0.769,0.769 -1.923,0 0.769,-0.769 Z" /></g><g
             transform="translate(104.531,160.912)"
             id="g126"><path
               inkscape:connector-curvature="0"
               id="path128"
               style="fill:#000000;fill-opacity:1;fill-rule:evenodd;stroke:none"
               d="M 0,0 -0.768,-0.769 1.923,0 -0.768,0.769 0,0" /></g><g
             transform="translate(104.531,160.912)"
             id="g130"><path
               inkscape:connector-curvature="0"
               id="path132"
               style="fill:none;stroke:#000000;stroke-width:0.5;stroke-linecap:butt;stroke-linejoin:miter;stroke-miterlimit:4;stroke-dasharray:none;stroke-opacity:1"
               d="M 0,0 -0.768,-0.769 1.923,0 -0.768,0.769 Z" /></g><g
             transform="translate(106.43,71.648)"
             id="g134"><path
               inkscape:connector-curvature="0"
               id="path136"
               style="fill:none;stroke:#000000;stroke-width:0.59200001;stroke-linecap:butt;stroke-linejoin:miter;stroke-miterlimit:4;stroke-dasharray:none;stroke-opacity:1"
               d="m 0,0 -1.743,2.544 -1.471,2.159 -1.298,2.206 -1.539,2.586 -1.162,2.33 -1.059,2.376 -0.924,2.415 -0.751,2.585 -0.547,2.798 -0.239,2.924 -0.172,2.461 -0.17,1.44 -0.341,0.762 -0.48,0.339 -0.411,0.126" /><g
               transform="translate(-24.628,0.02)"
               id="g138"><path
                 inkscape:connector-curvature="0"
                 id="path140"
                 style="fill:none;stroke:#000000;stroke-width:0.59200001;stroke-linecap:butt;stroke-linejoin:miter;stroke-miterlimit:4;stroke-dasharray:none;stroke-opacity:1"
                 d="m 0,0 1.744,2.544 1.471,2.161 1.299,2.202 1.54,2.587 1.163,2.332 1.059,2.373 0.923,2.416 0.752,2.585 0.548,2.796 0.238,2.926 0.172,2.457 0.171,1.441 0.343,0.762 0.477,0.341 0.411,0.126" /></g></g><g
             transform="translate(97.488,151.109)"
             id="g142"><path
               inkscape:connector-curvature="0"
               id="path144"
               style="fill:none;stroke:#000000;stroke-width:0.40000001;stroke-linecap:round;stroke-linejoin:bevel;stroke-miterlimit:4;stroke-dasharray:none;stroke-opacity:1"
               d="m 0,0 c 0,-1.899 -1.55,-3.438 -3.462,-3.438 -1.914,0 -3.465,1.539 -3.465,3.438 0,1.9 1.551,3.44 3.465,3.44 C -1.55,3.44 0,1.9 0,0 Z" /><g
               transform="translate(0.003,-11.408)"
               id="g146"><path
                 inkscape:connector-curvature="0"
                 id="path148"
                 style="fill:none;stroke:#000000;stroke-width:0.40000001;stroke-linecap:round;stroke-linejoin:bevel;stroke-miterlimit:4;stroke-dasharray:none;stroke-opacity:1"
                 d="m 0,0 c 0,-1.9 -1.551,-3.44 -3.464,-3.44 -1.912,0 -3.462,1.54 -3.462,3.44 0,1.899 1.55,3.44 3.462,3.44 C -1.551,3.44 0,1.899 0,0 Z" /><g
                 transform="translate(-0.004,-11.615)"
                 id="g150"><path
                   inkscape:connector-curvature="0"
                   id="path152"
                   style="fill:none;stroke:#000000;stroke-width:0.40000001;stroke-linecap:round;stroke-linejoin:bevel;stroke-miterlimit:4;stroke-dasharray:none;stroke-opacity:1"
                   d="m 0,0 c 0,-1.899 -1.551,-3.438 -3.465,-3.438 -1.912,0 -3.462,1.539 -3.462,3.438 0,1.899 1.55,3.44 3.462,3.44 C -1.551,3.44 0,1.899 0,0 Z" /></g></g></g><g
             transform="translate(126.676,113.599)"
             id="g154"><path
               inkscape:connector-curvature="0"
               id="path156"
               style="fill:none;stroke:#000000;stroke-width:0.5;stroke-linecap:butt;stroke-linejoin:miter;stroke-miterlimit:4;stroke-dasharray:none;stroke-opacity:1"
               d="m 0,0 c 0,0 -2.523,-16.336 -9.079,-17.494 -4.483,-0.792 -10.754,4.323 -10.754,4.323" /></g><g
             transform="translate(107.879,99.581)"
             id="g158"><path
               inkscape:connector-curvature="0"
               id="path160"
               style="fill:#000000;fill-opacity:1;fill-rule:evenodd;stroke:none"
               d="M 0,0 0.754,0.078 -1.036,0.847 0.077,-0.752 0,0" /></g><g
             transform="translate(107.879,99.581)"
             id="g162"><path
               inkscape:connector-curvature="0"
               id="path164"
               style="fill:none;stroke:#000000;stroke-width:0.40000001;stroke-linecap:butt;stroke-linejoin:miter;stroke-miterlimit:4;stroke-dasharray:none;stroke-opacity:1"
               d="m 0,0 0.754,0.078 -1.79,0.769 1.113,-1.599 z" /></g><g
             transform="translate(130.285,84.772)"
             id="g166"><path
               inkscape:connector-curvature="0"
               id="path168"
               style="fill:none;stroke:#000000;stroke-width:0.5;stroke-linecap:butt;stroke-linejoin:miter;stroke-miterlimit:4;stroke-dasharray:none;stroke-opacity:1"
               d="m 0,0 c 0,0 -7.156,3.03 -12.252,4.787 -5.051,1.745 -12.933,8.111 -12.933,8.111" /></g><g
             transform="translate(106.119,96.847)"
             id="g170"><path
               inkscape:connector-curvature="0"
               id="path172"
               style="fill:#000000;fill-opacity:1;fill-rule:evenodd;stroke:none"
               d="M 0,0 0.736,0.079 -1.019,0.823 0.078,-0.736 0,0" /></g><g
             transform="translate(106.119,96.847)"
             id="g174"><path
               inkscape:connector-curvature="0"
               id="path176"
               style="fill:none;stroke:#000000;stroke-width:0.40000001;stroke-linecap:butt;stroke-linejoin:miter;stroke-miterlimit:4;stroke-dasharray:none;stroke-opacity:1"
               d="M 0,0 0.736,0.079 -1.019,0.823 0.078,-0.736 Z" /></g><g
             transform="translate(126.937,69.452)"
             id="g178"><path
               inkscape:connector-curvature="0"
               id="path180"
               style="fill:none;stroke:#000000;stroke-width:0.5;stroke-linecap:butt;stroke-linejoin:miter;stroke-miterlimit:4;stroke-dasharray:none;stroke-opacity:1"
               d="m 0,0 c 0,0 -7.808,6.462 -11.64,11.7 -3.001,4.101 -10.45,11.422 -10.45,11.422" /></g><g
             transform="translate(105.821,91.616)"
             id="g182"><path
               inkscape:connector-curvature="0"
               id="path184"
               style="fill:#000000;fill-opacity:1;fill-rule:evenodd;stroke:none"
               d="M 0,0 0.773,0.007 -0.974,0.958 0.006,-0.772 0,0" /></g><g
             transform="translate(105.821,91.616)"
             id="g186"><path
               inkscape:connector-curvature="0"
               id="path188"
               style="fill:none;stroke:#000000;stroke-width:0.40000001;stroke-linecap:butt;stroke-linejoin:miter;stroke-miterlimit:4;stroke-dasharray:none;stroke-opacity:1"
               d="m 0,0 0.773,0.007 -1.747,0.951 0.98,-1.73 z" /></g><g
             transform="translate(61.392,113.599)"
             id="g190"><path
               inkscape:connector-curvature="0"
               id="path192"
               style="fill:none;stroke:#000000;stroke-width:0.5;stroke-linecap:butt;stroke-linejoin:miter;stroke-miterlimit:4;stroke-dasharray:none;stroke-opacity:1"
               d="m 0,0 c 0,0 2.523,-16.336 9.081,-17.494 4.488,-0.792 10.761,4.323 10.761,4.323" /></g><g
             transform="translate(80.196,99.581)"
             id="g194"><path
               inkscape:connector-curvature="0"
               id="path196"
               style="fill:#000000;fill-opacity:1;fill-rule:evenodd;stroke:none"
               d="M 0,0 -0.077,-0.752 1.037,0.847 -0.752,0.078 0,0" /></g><g
             transform="translate(80.196,99.581)"
             id="g198"><path
               inkscape:connector-curvature="0"
               id="path200"
               style="fill:none;stroke:#000000;stroke-width:0.40000001;stroke-linecap:butt;stroke-linejoin:miter;stroke-miterlimit:4;stroke-dasharray:none;stroke-opacity:1"
               d="M 0,0 -0.077,-0.752 1.037,0.847 -0.753,0.078 Z" /></g><g
             transform="translate(57.781,84.772)"
             id="g202"><path
               inkscape:connector-curvature="0"
               id="path204"
               style="fill:none;stroke:#000000;stroke-width:0.5;stroke-linecap:butt;stroke-linejoin:miter;stroke-miterlimit:4;stroke-dasharray:none;stroke-opacity:1"
               d="m 0,0 c 0,0 7.16,3.03 12.256,4.787 5.056,1.745 12.941,8.111 12.941,8.111" /></g><g
             transform="translate(81.958,96.847)"
             id="g206"><path
               inkscape:connector-curvature="0"
               id="path208"
               style="fill:#000000;fill-opacity:1;fill-rule:evenodd;stroke:none"
               d="M 0,0 -0.078,-0.736 1.02,0.823 -0.737,0.079 0,0" /></g><g
             transform="translate(81.958,96.847)"
             id="g210"><path
               inkscape:connector-curvature="0"
               id="path212"
               style="fill:none;stroke:#000000;stroke-width:0.40000001;stroke-linecap:butt;stroke-linejoin:miter;stroke-miterlimit:4;stroke-dasharray:none;stroke-opacity:1"
               d="M 0,0 -0.078,-0.736 1.02,0.823 -0.736,0.079 Z" /></g><g
             transform="translate(61.129,69.452)"
             id="g214"><path
               inkscape:connector-curvature="0"
               id="path216"
               style="fill:none;stroke:#000000;stroke-width:0.5;stroke-linecap:butt;stroke-linejoin:miter;stroke-miterlimit:4;stroke-dasharray:none;stroke-opacity:1"
               d="m 0,0 c 0,0 7.812,6.462 11.647,11.7 3.001,4.099 10.454,11.422 10.454,11.422" /></g><g
             transform="translate(82.257,91.616)"
             id="g218"><path
               inkscape:connector-curvature="0"
               id="path220"
               style="fill:#000000;fill-opacity:1;fill-rule:evenodd;stroke:none"
               d="M 0,0 -0.007,-0.772 0.974,0.958 -0.773,0.007 0,0" /></g><g
             transform="translate(82.257,91.616)"
             id="g222"><path
               inkscape:connector-curvature="0"
               id="path224"
               style="fill:none;stroke:#000000;stroke-width:0.40000001;stroke-linecap:butt;stroke-linejoin:miter;stroke-miterlimit:4;stroke-dasharray:none;stroke-opacity:1"
               d="M 0,0 -0.007,-0.772 0.974,0.958 -0.773,0.007 Z" /></g><g
             transform="translate(117.748,3.952)"
             id="g226"><path
               inkscape:connector-curvature="0"
               id="path228"
               style="fill:#000000;fill-opacity:1;fill-rule:evenodd;stroke:none"
               d="M 0,0 H -11.432 V 68.077 L 0,56.571 V 0" /></g><g
             transform="translate(117.748,3.952)"
             id="g230"><path
               inkscape:connector-curvature="0"
               id="path232"
               style="fill:none;stroke:#000000;stroke-width:0.191;stroke-linecap:butt;stroke-linejoin:miter;stroke-miterlimit:4;stroke-dasharray:none;stroke-opacity:1"
               d="M 0,0 H -11.432 V 68.077 L 0,56.571 Z" /></g><g
             transform="translate(70.481,3.952)"
             id="g234"><path
               inkscape:connector-curvature="0"
               id="path236"
               style="fill:#000000;fill-opacity:1;fill-rule:evenodd;stroke:none"
               d="M 0,0 H 11.431 V 68.077 L 0,56.571 V 0" /></g><g
             transform="translate(70.481,3.952)"
             id="g238"><path
               inkscape:connector-curvature="0"
               id="path240"
               style="fill:none;stroke:#000000;stroke-width:0.191;stroke-linecap:butt;stroke-linejoin:miter;stroke-miterlimit:4;stroke-dasharray:none;stroke-opacity:1"
               d="M 0,0 H 11.431 V 68.077 L 0,56.571 Z" /></g><g
             transform="translate(81.647,71.191)"
             id="g242"><path
               inkscape:connector-curvature="0"
               id="path244"
               style="fill:none;stroke:#000000;stroke-width:0.76800001;stroke-linecap:butt;stroke-linejoin:miter;stroke-miterlimit:4;stroke-dasharray:none;stroke-opacity:1"
               d="M 0,0 H 24.602" /></g><g
             transform="translate(160.033,8.32)"
             id="g246"><path
               inkscape:connector-curvature="0"
               id="path248"
               style="fill:none;stroke:#000000;stroke-width:0.40000001;stroke-linecap:butt;stroke-linejoin:miter;stroke-miterlimit:4;stroke-dasharray:none;stroke-opacity:1"
               d="M 0,0 -41.869,10.601" /></g><g
             transform="translate(121.679,18.032)"
             id="g250"><path
               inkscape:connector-curvature="0"
               id="path252"
               style="fill:#000000;fill-opacity:1;fill-rule:evenodd;stroke:none"
               d="M 0,0 1.762,1.049 -3.515,0.889 1.05,-1.762 0,0" /></g><g
             transform="translate(121.679,18.032)"
             id="g254"><path
               inkscape:connector-curvature="0"
               id="path256"
               style="fill:none;stroke:#000000;stroke-width:0.40000001;stroke-linecap:butt;stroke-linejoin:miter;stroke-miterlimit:4;stroke-dasharray:none;stroke-opacity:1"
               d="M 0,0 1.762,1.049 -3.513,0.889 1.05,-1.762 Z" /></g><g
             transform="translate(173.994,7.377)"
             id="g258"><path
               inkscape:connector-curvature="0"
               id="path260"
               style="fill:none;stroke:#000000;stroke-width:0.5;stroke-linecap:round;stroke-linejoin:bevel;stroke-miterlimit:4;stroke-dasharray:none;stroke-opacity:1"
               d="m 0,0 c 0,-3.937 -3.188,-7.127 -7.126,-7.127 -3.936,0 -7.125,3.19 -7.125,7.127 0,3.935 3.189,7.128 7.125,7.128 C -3.188,7.128 0,3.935 0,0 Z" /></g><g
             transform="translate(152.575,177.725)"
             id="g262"><path
               inkscape:connector-curvature="0"
               id="path264"
               style="fill:none;stroke:#000000;stroke-width:0.5;stroke-linecap:butt;stroke-linejoin:miter;stroke-miterlimit:4;stroke-dasharray:none;stroke-opacity:1"
               d="M 0,0 -41.722,-16.412" /></g><g
             transform="translate(115.043,162.962)"
             id="g266"><path
               inkscape:connector-curvature="0"
               id="path268"
               style="fill:#000000;fill-opacity:1;fill-rule:evenodd;stroke:none"
               d="M 0,0 1.018,2.334 -4.19,-1.649 2.335,-1.018 0,0" /></g><g
             transform="translate(115.043,162.962)"
             id="g270"><path
               inkscape:connector-curvature="0"
               id="path272"
               style="fill:none;stroke:#000000;stroke-width:0.44999999;stroke-linecap:butt;stroke-linejoin:miter;stroke-miterlimit:4;stroke-dasharray:none;stroke-opacity:1"
               d="M 0,0 1.018,2.334 -4.19,-1.649 2.335,-1.018 Z" /></g><g
             transform="translate(166.829,178.961)"
             id="g274"><path
               inkscape:connector-curvature="0"
               id="path276"
               style="fill:none;stroke:#000000;stroke-width:0.5;stroke-linecap:round;stroke-linejoin:bevel;stroke-miterlimit:4;stroke-dasharray:none;stroke-opacity:1"
               d="m 0,0 c 0,-3.935 -3.19,-7.127 -7.125,-7.127 -3.936,0 -7.128,3.192 -7.128,7.127 0,3.937 3.192,7.127 7.128,7.127 C -3.19,7.127 0,3.937 0,0 Z" /><g
               transform="translate(-116.455,-8.161)"
               id="g278"><path
                 inkscape:connector-curvature="0"
                 id="path280"
                 style="fill:none;stroke:#000000;stroke-width:0.5;stroke-linecap:round;stroke-linejoin:bevel;stroke-miterlimit:4;stroke-dasharray:none;stroke-opacity:1"
                 d="m 0,0 c 0,-3.935 -3.19,-7.127 -7.128,-7.127 -3.935,0 -7.127,3.192 -7.127,7.127 0,3.937 3.192,7.128 7.127,7.128 C -3.19,7.128 0,3.937 0,0 Z" /></g></g><g
             transform="translate(68.703,212.16)"
             id="g282"><path
               inkscape:connector-curvature="0"
               id="path284"
               style="fill:none;stroke:#000000;stroke-width:0.5;stroke-linecap:butt;stroke-linejoin:miter;stroke-miterlimit:4;stroke-dasharray:none;stroke-opacity:1"
               d="M 0,0 25.01,-7.35" /></g><g
             transform="translate(91.474,205.468)"
             id="g286"><path
               inkscape:connector-curvature="0"
               id="path288"
               style="fill:#000000;fill-opacity:1;fill-rule:evenodd;stroke:none"
               d="M 0,0 -1.159,-0.633 2.238,-0.658 -0.632,1.159 0,0" /></g><g
             transform="translate(91.474,205.468)"
             id="g290"><path
               inkscape:connector-curvature="0"
               id="path292"
               style="fill:none;stroke:#000000;stroke-width:0.5;stroke-linecap:butt;stroke-linejoin:miter;stroke-miterlimit:4;stroke-dasharray:none;stroke-opacity:1"
               d="m 0,0 -1.159,-0.633 3.397,-0.025 -2.87,1.817 z" /></g><g
             transform="translate(68.558,212.919)"
             id="g294"><path
               inkscape:connector-curvature="0"
               id="path296"
               style="fill:none;stroke:#000000;stroke-width:0.5;stroke-linecap:round;stroke-linejoin:bevel;stroke-miterlimit:4;stroke-dasharray:none;stroke-opacity:1"
               d="m 0,0 c 0,-3.938 -3.191,-7.129 -7.128,-7.129 -3.935,0 -7.128,3.191 -7.128,7.129 0,3.935 3.193,7.127 7.128,7.127 C -3.191,7.127 0,3.935 0,0 Z" /></g><g
             transform="translate(57.012,55.602)"
             id="g298"><path
               inkscape:connector-curvature="0"
               id="path300"
               style="fill:none;stroke:#000000;stroke-width:0.5;stroke-linecap:butt;stroke-linejoin:miter;stroke-miterlimit:4;stroke-dasharray:none;stroke-opacity:1"
               d="M 0,0 33.094,32.623" /></g><g
             transform="translate(86.081,84.256)"
             id="g302"><path
               inkscape:connector-curvature="0"
               id="path304"
               style="fill:#000000;fill-opacity:1;fill-rule:evenodd;stroke:none"
               d="M 0,0 -0.024,-3.198 4.025,3.969 -3.199,0.024 0,0" /></g><g
             transform="translate(86.081,84.256)"
             id="g306"><path
               inkscape:connector-curvature="0"
               id="path308"
               style="fill:none;stroke:#000000;stroke-width:0.565;stroke-linecap:butt;stroke-linejoin:miter;stroke-miterlimit:4;stroke-dasharray:none;stroke-opacity:1"
               d="M 0,0 -0.024,-3.198 4.026,3.969 -3.199,0.024 Z" /></g><g
             transform="translate(58.727,50.896)"
             id="g310"><path
               inkscape:connector-curvature="0"
               id="path312"
               style="fill:none;stroke:#000000;stroke-width:0.5;stroke-linecap:round;stroke-linejoin:bevel;stroke-miterlimit:4;stroke-dasharray:none;stroke-opacity:1"
               d="m 0,0 c 0,-3.935 -3.191,-7.125 -7.127,-7.125 -3.936,0 -7.127,3.19 -7.127,7.125 0,3.937 3.191,7.129 7.127,7.129 C -3.191,7.129 0,3.937 0,0 Z" /></g><g
             id="g314"><g
               clip-path="url(#clipPath320)"
               id="g316"><g
                 transform="translate(14.504,88.634)"
                 id="g322"><path
                   inkscape:connector-curvature="0"
                   id="path324"
                   style="fill:none;stroke:#000000;stroke-width:0.5;stroke-linecap:round;stroke-linejoin:bevel;stroke-miterlimit:4;stroke-dasharray:none;stroke-opacity:1"
                   d="m 0,0 c 0,-3.935 -3.19,-7.128 -7.1266,-7.128 -3.9364,0 -7.1274,3.193 -7.1274,7.128 0,3.936 3.191,7.127 7.1274,7.127 C -3.19,7.127 0,3.936 0,0 Z" /></g></g></g><g
             transform="translate(21.483,124.68)"
             id="g326"><path
               inkscape:connector-curvature="0"
               id="path328"
               style="fill:none;stroke:#000000;stroke-width:1.25;stroke-linecap:butt;stroke-linejoin:miter;stroke-miterlimit:4;stroke-dasharray:none;stroke-opacity:1"
               d="M 0,0 H 8.53" /><g
               transform="translate(0.004,6.891)"
               id="g330"><path
                 inkscape:connector-curvature="0"
                 id="path332"
                 style="fill:none;stroke:#000000;stroke-width:1.25;stroke-linecap:butt;stroke-linejoin:miter;stroke-miterlimit:4;stroke-dasharray:none;stroke-opacity:1"
                 d="M 0,0 H 8.53" /></g></g><g
             transform="translate(12.247,93.604)"
             id="g334"><path
               inkscape:connector-curvature="0"
               id="path336"
               style="fill:none;stroke:#000000;stroke-width:0.5;stroke-linecap:butt;stroke-linejoin:miter;stroke-miterlimit:4;stroke-dasharray:none;stroke-opacity:1"
               d="M 0,0 28.505,9.634" /></g><g
             transform="translate(35.382,101.423)"
             id="g338"><path
               inkscape:connector-curvature="0"
               id="path340"
               style="fill:#000000;fill-opacity:1;fill-rule:evenodd;stroke:none"
               d="M 0,0 -1.422,-2.874 5.37,1.815 -2.874,1.422 0,0" /></g><g
             transform="translate(35.382,101.423)"
             id="g342"><path
               inkscape:connector-curvature="0"
               id="path344"
               style="fill:none;stroke:#000000;stroke-width:0.5;stroke-linecap:butt;stroke-linejoin:miter;stroke-miterlimit:4;stroke-dasharray:none;stroke-opacity:1"
               d="M 0,0 -1.423,-2.874 5.37,1.815 -2.874,1.422 Z" /><g
               transform="translate(-25.994,26.929)"
               id="g346"><path
                 inkscape:connector-curvature="0"
                 id="path348"
                 style="fill:none;stroke:#000000;stroke-width:0.5;stroke-linecap:butt;stroke-linejoin:miter;stroke-miterlimit:4;stroke-dasharray:none;stroke-opacity:1"
                 d="M 0,0 H 31.251" /></g></g><g
             transform="translate(34.427,128.352)"
             id="g350"><path
               inkscape:connector-curvature="0"
               id="path352"
               style="fill:#000000;fill-opacity:1;fill-rule:evenodd;stroke:none"
               d="M 0,0 -2.483,-2.483 6.212,0 -2.483,2.486 0,0" /></g><g
             transform="translate(34.427,128.352)"
             id="g354"><path
               inkscape:connector-curvature="0"
               id="path356"
               style="fill:none;stroke:#000000;stroke-width:0.5;stroke-linecap:butt;stroke-linejoin:miter;stroke-miterlimit:4;stroke-dasharray:none;stroke-opacity:1"
               d="M 0,0 -2.483,-2.483 6.212,0 -2.483,2.486 Z" /><g
               transform="translate(59.513,-20.95)"
               id="g358"><path
                 inkscape:connector-curvature="0"
                 id="path360"
                 style="fill:none;stroke:#000000;stroke-width:0.5;stroke-linecap:butt;stroke-linejoin:miter;stroke-miterlimit:4;stroke-dasharray:none;stroke-opacity:1"
                 d="M 0,0 V 12.335" /></g></g><g
             transform="translate(93.94,116.879)"
             id="g362"><path
               inkscape:connector-curvature="0"
               id="path364"
               style="fill:#000000;fill-opacity:1;fill-rule:evenodd;stroke:none"
               d="M 0,0 1.143,-1.143 0,2.858 -1.143,-1.143 0,0" /></g><g
             transform="translate(93.94,116.879)"
             id="g366"><path
               inkscape:connector-curvature="0"
               id="path368"
               style="fill:none;stroke:#000000;stroke-width:0.5;stroke-linecap:butt;stroke-linejoin:miter;stroke-miterlimit:4;stroke-dasharray:none;stroke-opacity:1"
               d="M 0,0 1.143,-1.143 0,2.858 -1.143,-1.143 Z" /></g><g
             transform="translate(17.036,137.829)"
             id="g370"><path
               inkscape:connector-curvature="0"
               id="path372"
               style="fill:none;stroke:#000000;stroke-width:0.5;stroke-linecap:round;stroke-linejoin:bevel;stroke-miterlimit:4;stroke-dasharray:none;stroke-opacity:1"
               d="m 0,0 c 0,-3.937 -3.19,-7.128 -7.1266,-7.128 -3.9364,0 -7.1264,3.191 -7.1264,7.128 0,3.937 3.19,7.128 7.1264,7.128 C -3.19,7.128 0,3.937 0,0 Z" /></g><g
             transform="translate(93.617,176.109)"
             id="g374"><path
               inkscape:connector-curvature="0"
               id="path376"
               style="fill:none;stroke:#000000;stroke-width:0.5;stroke-linecap:butt;stroke-linejoin:miter;stroke-miterlimit:4;stroke-dasharray:none;stroke-opacity:1"
               d="M 0,0 V 21.406" /></g><g
             transform="translate(93.617,192.356)"
             id="g378"><path
               inkscape:connector-curvature="0"
               id="path380"
               style="fill:#000000;fill-opacity:1;fill-rule:evenodd;stroke:none"
               d="M 0,0 2.064,-2.063 0,5.159 -2.063,-2.063 0,0" /></g><g
             transform="translate(93.617,192.356)"
             id="g382"><path
               inkscape:connector-curvature="0"
               id="path384"
               style="fill:none;stroke:#000000;stroke-width:0.5;stroke-linecap:butt;stroke-linejoin:miter;stroke-miterlimit:4;stroke-dasharray:none;stroke-opacity:1"
               d="M 0,0 2.064,-2.063 0,5.159 -2.063,-2.063 Z" /></g><g
             transform="translate(80.186,3.948)"
             id="g386"><path
               inkscape:connector-curvature="0"
               id="path388"
               style="fill:none;stroke:#000000;stroke-width:0.191;stroke-linecap:butt;stroke-linejoin:miter;stroke-miterlimit:4;stroke-dasharray:none;stroke-opacity:1"
               d="M 0,0 H 28.211" /></g><g
             transform="translate(82.065,37.4)"
             id="g390"><path
               inkscape:connector-curvature="0"
               id="path392"
               style="fill:#c6caf9;fill-opacity:1;fill-rule:nonzero;stroke:none"
               d="M 0,0 V 33.277 H 24.114 V -33.276 H 0 V 0" /></g><g
             transform="translate(82.065,37.4)"
             id="g394"><path
               inkscape:connector-curvature="0"
               id="path396"
               style="fill:none;stroke:#000000;stroke-width:0.5;stroke-linecap:butt;stroke-linejoin:miter;stroke-miterlimit:4;stroke-dasharray:none;stroke-opacity:1"
               d="M 0,0 V 33.277 H 24.114 V -33.276 H 0 Z" /></g><g
             transform="translate(82.493,72.103)"
             id="g398"><path
               inkscape:connector-curvature="0"
               id="path400"
               style="fill:#c6caf9;fill-opacity:1;fill-rule:nonzero;stroke:none"
               d="m 0,0 c 1.495,2.166 2.878,4.229 3.17,4.725 0.193,0.33 0.818,1.388 1.392,2.353 2.707,4.561 4.472,8.897 5.272,12.963 0.305,1.545 0.35,1.951 0.599,5.386 0.162,2.265 0.235,2.814 0.423,3.206 0.119,0.25 0.198,0.348 0.387,0.473 0.203,0.136 0.266,0.155 0.424,0.13 0.312,-0.05 0.572,-0.278 0.736,-0.644 0.119,-0.265 0.16,-0.461 0.241,-1.15 0.052,-0.455 0.12,-1.193 0.148,-1.639 0.029,-0.444 0.116,-1.602 0.194,-2.572 0.133,-1.664 0.157,-1.841 0.424,-3.19 0.513,-2.597 1.296,-4.97 2.585,-7.835 0.843,-1.876 1.492,-3.13 2.464,-4.764 0.492,-0.826 1.143,-1.93 1.453,-2.454 0.308,-0.523 0.758,-1.24 0.999,-1.596 1.875,-2.743 2.499,-3.66 2.573,-3.774 l 0.083,-0.131 H -0.353 L 0,0" /></g><g
             transform="translate(82.493,72.103)"
             id="g402"><path
               inkscape:connector-curvature="0"
               id="path404"
               style="fill:none;stroke:#000000;stroke-width:0.5;stroke-linecap:butt;stroke-linejoin:miter;stroke-miterlimit:4;stroke-dasharray:none;stroke-opacity:1"
               d="m 0,0 c 1.495,2.166 2.878,4.229 3.17,4.725 0.193,0.33 0.818,1.388 1.392,2.353 2.707,4.561 4.472,8.897 5.272,12.963 0.305,1.545 0.35,1.951 0.599,5.386 0.162,2.265 0.235,2.814 0.423,3.206 0.119,0.25 0.198,0.348 0.387,0.473 0.203,0.136 0.266,0.155 0.424,0.13 0.312,-0.05 0.572,-0.278 0.736,-0.644 0.119,-0.265 0.16,-0.461 0.241,-1.15 0.052,-0.455 0.12,-1.193 0.148,-1.639 0.029,-0.444 0.116,-1.602 0.194,-2.572 0.133,-1.664 0.157,-1.841 0.424,-3.19 0.513,-2.597 1.296,-4.97 2.585,-7.835 0.843,-1.876 1.492,-3.13 2.464,-4.764 0.492,-0.826 1.143,-1.93 1.453,-2.454 0.308,-0.523 0.758,-1.24 0.999,-1.596 1.875,-2.743 2.499,-3.66 2.573,-3.774 l 0.083,-0.131 h -23.92 z" /><g
               transform="translate(11.808,-52.554)"
               id="g406"><path
                 inkscape:connector-curvature="0"
                 id="path408"
                 style="fill:none;stroke:#000000;stroke-width:0.5;stroke-linecap:butt;stroke-linejoin:miter;stroke-miterlimit:4;stroke-dasharray:none;stroke-opacity:1"
                 d="M 0,0 V 21.571" /></g></g><g
             transform="translate(94.301,35.941)"
             id="g410"><path
               inkscape:connector-curvature="0"
               id="path412"
               style="fill:#000000;fill-opacity:1;fill-rule:evenodd;stroke:none"
               d="M 0,0 2.072,-2.07 0,5.179 -2.071,-2.07 0,0" /></g><g
             transform="translate(94.301,35.941)"
             id="g414"><path
               inkscape:connector-curvature="0"
               id="path416"
               style="fill:none;stroke:#000000;stroke-width:0.5;stroke-linecap:butt;stroke-linejoin:miter;stroke-miterlimit:4;stroke-dasharray:none;stroke-opacity:1"
               d="M 0,0 2.072,-2.07 0,5.179 -2.071,-2.07 Z" /><g
               transform="translate(-12.258,7.27)"
               id="g418"><path
                 inkscape:connector-curvature="0"
                 id="path420"
                 style="fill:none;stroke:#000000;stroke-width:0.5;stroke-linecap:butt;stroke-linejoin:miter;stroke-miterlimit:4;stroke-dasharray:none;stroke-opacity:1"
                 d="M 0,0 C 0,0 0.749,13.21 12.419,13.164 24.086,13.118 24.102,-0.002 24.102,-0.002 Z" /><g
                 transform="translate(12.344,-0.029)"
                 id="g422"><path
                   inkscape:connector-curvature="0"
                   id="path424"
                   style="fill:none;stroke:#000000;stroke-width:0.5;stroke-linecap:butt;stroke-linejoin:miter;stroke-miterlimit:4;stroke-dasharray:none;stroke-opacity:1"
                   d="M 0,0 0.003,13.052" /></g></g></g><g
             transform="translate(94.39,55.395)"
             id="g426"><path
               inkscape:connector-curvature="0"
               id="path428"
               style="fill:#000000;fill-opacity:1;fill-rule:evenodd;stroke:none"
               d="M 0,0 0.336,-0.337 0,0.839 -0.337,-0.337 0,0" /></g><g
             transform="translate(94.39,55.395)"
             id="g430"><path
               inkscape:connector-curvature="0"
               id="path432"
               style="fill:none;stroke:#000000;stroke-width:0.5;stroke-linecap:butt;stroke-linejoin:miter;stroke-miterlimit:4;stroke-dasharray:none;stroke-opacity:1"
               d="M 0,0 0.336,-0.337 0,0.839 -0.337,-0.337 Z" /><g
               transform="translate(-7.876,-12.174)"
               id="g434"><path
                 inkscape:connector-curvature="0"
                 id="path436"
                 style="fill:none;stroke:#000000;stroke-width:0.5;stroke-linecap:butt;stroke-linejoin:miter;stroke-miterlimit:4;stroke-dasharray:none;stroke-opacity:1"
                 d="M 0,0 0.003,10.041" /></g></g><g
             transform="translate(86.517,52.526)"
             id="g438"><path
               inkscape:connector-curvature="0"
               id="path440"
               style="fill:#000000;fill-opacity:1;fill-rule:evenodd;stroke:none"
               d="M 0,0 0.295,-0.295 0,0.736 -0.295,-0.295 0,0" /></g><g
             transform="translate(86.517,52.526)"
             id="g442"><path
               inkscape:connector-curvature="0"
               id="path444"
               style="fill:none;stroke:#000000;stroke-width:0.074;stroke-linecap:butt;stroke-linejoin:miter;stroke-miterlimit:4;stroke-dasharray:none;stroke-opacity:1"
               d="M 0,0 0.295,-0.295 0,0.736 -0.295,-0.295 Z" /></g><g
             transform="translate(90.875,43.246)"
             id="g446"><path
               inkscape:connector-curvature="0"
               id="path448"
               style="fill:none;stroke:#000000;stroke-width:0.5;stroke-linecap:butt;stroke-linejoin:miter;stroke-miterlimit:4;stroke-dasharray:none;stroke-opacity:1"
               d="M 0,0 0.003,12.5" /></g><g
             transform="translate(90.876,54.923)"
             id="g450"><path
               inkscape:connector-curvature="0"
               id="path452"
               style="fill:#000000;fill-opacity:1;fill-rule:evenodd;stroke:none"
               d="M 0,0 0.33,-0.331 0.001,0.823 -0.328,-0.328 0,0" /></g><g
             transform="translate(90.876,54.923)"
             id="g454"><path
               inkscape:connector-curvature="0"
               id="path456"
               style="fill:none;stroke:#000000;stroke-width:0.5;stroke-linecap:butt;stroke-linejoin:miter;stroke-miterlimit:4;stroke-dasharray:none;stroke-opacity:1"
               d="M 0,0 0.33,-0.331 0.001,0.823 -0.328,-0.328 Z" /><g
               transform="translate(7.017,-11.737)"
               id="g458"><path
                 inkscape:connector-curvature="0"
                 id="path460"
                 style="fill:none;stroke:#000000;stroke-width:0.5;stroke-linecap:butt;stroke-linejoin:miter;stroke-miterlimit:4;stroke-dasharray:none;stroke-opacity:1"
                 d="M 0,0 0.003,12.567" /></g></g><g
             transform="translate(97.895,54.929)"
             id="g462"><path
               inkscape:connector-curvature="0"
               id="path464"
               style="fill:#000000;fill-opacity:1;fill-rule:evenodd;stroke:none"
               d="M 0,0 0.33,-0.331 0.001,0.824 -0.329,-0.33 0,0" /></g><g
             transform="translate(97.895,54.929)"
             id="g466"><path
               inkscape:connector-curvature="0"
               id="path468"
               style="fill:none;stroke:#000000;stroke-width:0.5;stroke-linecap:butt;stroke-linejoin:miter;stroke-miterlimit:4;stroke-dasharray:none;stroke-opacity:1"
               d="M 0,0 0.33,-0.331 0.001,0.824 -0.329,-0.33 Z" /><g
               transform="translate(4.321,-11.767)"
               id="g470"><path
                 inkscape:connector-curvature="0"
                 id="path472"
                 style="fill:none;stroke:#000000;stroke-width:0.5;stroke-linecap:butt;stroke-linejoin:miter;stroke-miterlimit:4;stroke-dasharray:none;stroke-opacity:1"
                 d="M 0,0 0.002,10.1" /></g></g><g
             transform="translate(102.218,52.524)"
             id="g474"><path
               inkscape:connector-curvature="0"
               id="path476"
               style="fill:#000000;fill-opacity:1;fill-rule:evenodd;stroke:none"
               d="M 0,0 0.295,-0.294 0,0.738 -0.294,-0.294 0,0" /></g><g
             transform="translate(102.218,52.524)"
             id="g478"><path
               inkscape:connector-curvature="0"
               id="path480"
               style="fill:none;stroke:#000000;stroke-width:0.5;stroke-linecap:butt;stroke-linejoin:miter;stroke-miterlimit:4;stroke-dasharray:none;stroke-opacity:1"
               d="M 0,0 0.295,-0.294 0,0.738 -0.294,-0.294 Z" /></g><g
             transform="translate(93.77,124.851)"
             id="g482"><path
               inkscape:connector-curvature="0"
               id="path484"
               style="fill:#c6caf9;fill-opacity:1;fill-rule:nonzero;stroke:none"
               d="M 0,0 C -0.02,0.003 -0.087,0.011 -0.149,0.019 -1.417,0.16 -2.52,1.091 -2.882,2.325 -2.973,2.64 -3.01,2.893 -3.01,3.232 c 0,0.876 0.325,1.657 0.948,2.281 0.523,0.522 1.13,0.823 1.884,0.937 C -0.011,6.474 0.546,6.471 0.727,6.442 1.71,6.291 2.553,5.728 3.059,4.886 3.275,4.527 3.416,4.132 3.485,3.696 3.524,3.446 3.524,3.016 3.485,2.767 3.368,2.032 3.049,1.418 2.515,0.903 2.023,0.428 1.414,0.131 0.708,0.022 0.589,0.004 0.085,-0.012 0,0" /></g><g
             transform="translate(93.77,124.851)"
             id="g486"><path
               inkscape:connector-curvature="0"
               id="path488"
               style="fill:none;stroke:#000000;stroke-width:0.5;stroke-linecap:butt;stroke-linejoin:miter;stroke-miterlimit:4;stroke-dasharray:none;stroke-opacity:1"
               d="M 0,0 C -0.02,0.003 -0.087,0.011 -0.149,0.019 -1.417,0.16 -2.52,1.091 -2.882,2.325 -2.973,2.64 -3.01,2.893 -3.01,3.232 c 0,0.876 0.325,1.657 0.948,2.28 0.523,0.523 1.13,0.824 1.884,0.938 C -0.011,6.474 0.546,6.471 0.727,6.442 1.71,6.291 2.553,5.728 3.059,4.886 3.275,4.527 3.416,4.132 3.485,3.696 3.524,3.446 3.524,3.016 3.485,2.767 3.368,2.032 3.049,1.418 2.515,0.903 2.023,0.428 1.414,0.131 0.708,0.022 0.589,0.004 0.085,-0.012 0,0 Z" /></g><g
             transform="translate(93.883,147.871)"
             id="g490"><path
               inkscape:connector-curvature="0"
               id="path492"
               style="fill:#c6caf9;fill-opacity:1;fill-rule:nonzero;stroke:none"
               d="m 0,0 c -0.174,0.011 -0.353,0.032 -0.488,0.06 -1.416,0.277 -2.488,1.454 -2.62,2.878 -0.017,0.191 -0.009,0.597 0.018,0.769 0.193,1.253 1.079,2.27 2.293,2.635 0.57,0.173 1.183,0.182 1.767,0.033 C 1.253,6.302 1.576,6.166 1.821,6.018 2.082,5.859 2.231,5.742 2.465,5.505 2.734,5.237 2.924,4.973 3.079,4.653 3.289,4.218 3.387,3.818 3.401,3.338 3.419,2.786 3.311,2.294 3.071,1.813 2.897,1.463 2.718,1.218 2.442,0.945 1.982,0.488 1.41,0.184 0.769,0.058 0.55,0.015 0.188,-0.013 0,0" /></g><g
             transform="translate(93.883,147.871)"
             id="g494"><path
               inkscape:connector-curvature="0"
               id="path496"
               style="fill:none;stroke:#000000;stroke-width:0.5;stroke-linecap:butt;stroke-linejoin:miter;stroke-miterlimit:4;stroke-dasharray:none;stroke-opacity:1"
               d="m 0,0 c -0.174,0.011 -0.353,0.032 -0.488,0.06 -1.416,0.277 -2.488,1.454 -2.62,2.878 -0.017,0.191 -0.009,0.597 0.018,0.769 0.193,1.253 1.079,2.27 2.293,2.635 0.57,0.173 1.183,0.182 1.767,0.033 C 1.253,6.302 1.576,6.166 1.821,6.018 2.082,5.859 2.231,5.742 2.465,5.505 2.734,5.237 2.924,4.973 3.079,4.653 3.289,4.218 3.387,3.818 3.401,3.338 3.419,2.786 3.311,2.294 3.071,1.813 2.897,1.463 2.718,1.218 2.442,0.945 1.982,0.488 1.41,0.184 0.769,0.058 0.55,0.015 0.188,-0.013 0,0 Z" /><g
               transform="translate(-43.94,20.143)"
               id="g498"><path
                 inkscape:connector-curvature="0"
                 id="path500"
                 style="fill:none;stroke:#000000;stroke-width:0.5;stroke-linecap:butt;stroke-linejoin:miter;stroke-miterlimit:4;stroke-dasharray:none;stroke-opacity:1"
                 d="M 0,0 42.264,-16.644" /></g></g><g
             transform="translate(87.96,153.042)"
             id="g502"><path
               inkscape:connector-curvature="0"
               id="path504"
               style="fill:#000000;fill-opacity:1;fill-rule:evenodd;stroke:none"
               d="M 0,0 -2.367,-1.028 4.247,-1.671 -1.029,2.368 0,0" /></g><g
             transform="translate(87.96,153.042)"
             id="g506"><path
               inkscape:connector-curvature="0"
               id="path508"
               style="fill:none;stroke:#000000;stroke-width:0.456;stroke-linecap:butt;stroke-linejoin:miter;stroke-miterlimit:4;stroke-dasharray:none;stroke-opacity:1"
               d="M 0,0 -2.367,-1.029 4.247,-1.671 -1.029,2.368 Z" /></g><g
             transform="translate(93.695,136.475)"
             id="g510"><path
               inkscape:connector-curvature="0"
               id="path512"
               style="fill:#c6caf9;fill-opacity:1;fill-rule:nonzero;stroke:none"
               d="m 0,0 c -1.185,0.13 -2.166,0.84 -2.66,1.927 -0.1,0.22 -0.196,0.551 -0.243,0.84 -0.029,0.186 -0.029,0.729 0,0.914 0.131,0.812 0.514,1.499 1.116,2.007 C -1.258,6.134 -0.65,6.389 0.04,6.453 0.227,6.471 0.62,6.462 0.796,6.434 1.964,6.261 2.944,5.489 3.374,4.404 3.602,3.826 3.657,3.156 3.523,2.541 3.327,1.629 2.721,0.826 1.892,0.379 1.553,0.195 1.197,0.078 0.798,0.016 0.649,-0.008 0.153,-0.019 0,0" /></g><g
             transform="translate(93.695,136.475)"
             id="g514"><path
               inkscape:connector-curvature="0"
               id="path516"
               style="fill:none;stroke:#000000;stroke-width:0.5;stroke-linecap:butt;stroke-linejoin:miter;stroke-miterlimit:4;stroke-dasharray:none;stroke-opacity:1"
               d="m 0,0 c -1.185,0.13 -2.166,0.84 -2.66,1.927 -0.1,0.22 -0.196,0.551 -0.243,0.84 -0.029,0.186 -0.029,0.729 0,0.914 0.131,0.812 0.514,1.499 1.116,2.007 C -1.258,6.134 -0.65,6.389 0.04,6.453 0.227,6.471 0.62,6.462 0.796,6.434 1.964,6.261 2.944,5.489 3.374,4.404 3.602,3.826 3.657,3.156 3.523,2.541 3.327,1.629 2.721,0.826 1.892,0.379 1.553,0.195 1.197,0.078 0.798,0.016 0.649,-0.008 0.153,-0.019 0,0 Z" /></g><path
             inkscape:connector-curvature="0"
             id="path518"
             style="fill:none;stroke:#000000;stroke-width:0.5;stroke-linecap:butt;stroke-linejoin:miter;stroke-miterlimit:4;stroke-dasharray:0.25607, 0.085355;stroke-dashoffset:0;stroke-opacity:1"
             d="m 86.715,139.67 h 17.64" /><g
             transform="translate(90.346,139.662)"
             id="g520"><path
               inkscape:connector-curvature="0"
               id="path522"
               style="fill:none;stroke:#000000;stroke-width:0.25;stroke-linecap:butt;stroke-linejoin:miter;stroke-miterlimit:4;stroke-dasharray:none;stroke-opacity:1"
               d="M 0,0 H 7.289" /></g><g
             transform="translate(89.127,139.662)"
             id="g524"><path
               inkscape:connector-curvature="0"
               id="path526"
               style="fill:#000000;fill-opacity:1;fill-rule:evenodd;stroke:none"
               d="M 0,0 -0.489,-0.488 1.22,0 -0.489,0.488 0,0" /></g><g
             transform="translate(89.127,139.662)"
             id="g528"><path
               inkscape:connector-curvature="0"
               id="path530"
               style="fill:none;stroke:#000000;stroke-width:0.25;stroke-linecap:butt;stroke-linejoin:miter;stroke-miterlimit:4;stroke-dasharray:none;stroke-opacity:1"
               d="M 0,0 -0.489,-0.488 1.22,0 -0.489,0.488 Z" /></g><g
             transform="translate(98.855,139.662)"
             id="g532"><path
               inkscape:connector-curvature="0"
               id="path534"
               style="fill:#000000;fill-opacity:1;fill-rule:evenodd;stroke:none"
               d="M 0,0 0.489,0.488 -1.22,0 0.489,-0.488 0,0" /></g><g
             transform="translate(98.855,139.662)"
             id="g536"><path
               inkscape:connector-curvature="0"
               id="path538"
               style="fill:none;stroke:#000000;stroke-width:0.25;stroke-linecap:butt;stroke-linejoin:miter;stroke-miterlimit:4;stroke-dasharray:none;stroke-opacity:1"
               d="M 0,0 0.489,0.488 -1.22,0 0.489,-0.488 Z" /></g><text
             id="text544"
             style="font-style:italic;font-variant:normal;font-size:8px;font-family:'Times New Roman';-inkscape-font-specification:Times-Italic;writing-mode:lr-tb;fill:#000000;fill-opacity:1;fill-rule:nonzero;stroke:none"
             transform="matrix(1,0,0,-1,141.019,85.793)"><tspan
               id="tspan540"
               y="0"
               x="0">H</tspan><tspan
               id="tspan542"
               y="-77.722397"
               x="-41.554401">L</tspan></text>
<text
             id="text548"
             style="font-variant:normal;font-weight:normal;font-size:8px;font-family:'Times New Roman';-inkscape-font-specification:Times-Roman;writing-mode:lr-tb;fill:#000000;fill-opacity:1;fill-rule:nonzero;stroke:none"
             transform="matrix(1,0,0,-1,164.8686,4.925)"><tspan
               id="tspan546"
               y="0"
               x="0">1</tspan></text>
<g
             transform="translate(189.029,154.901)"
             id="g550"><path
               inkscape:connector-curvature="0"
               id="path552"
               style="fill:none;stroke:#000000;stroke-width:0.5;stroke-linecap:round;stroke-linejoin:bevel;stroke-miterlimit:4;stroke-dasharray:none;stroke-opacity:1"
               d="m 0,0 c 0,-3.936 -3.193,-7.128 -7.129,-7.128 -3.936,0 -7.127,3.192 -7.127,7.128 0,3.937 3.191,7.128 7.127,7.128 C -3.193,7.128 0,3.937 0,0 Z" /></g><text
             id="text558"
             style="font-variant:normal;font-weight:normal;font-size:8px;font-family:'Times New Roman';-inkscape-font-specification:Times-Roman;writing-mode:lr-tb;fill:#000000;fill-opacity:1;fill-rule:nonzero;stroke:none"
             transform="matrix(1,0,0,-1,193.285,152.4508)"><tspan
               id="tspan554"
               sodipodi:role="line"
               y="0"
               x="0 5.776 9.3280001 12.44 14.44 16.664 20.664 22.888 26.440001 29.992001 32.216 34.439999 38.439999 42.439999 44.439999 48.439999 51.992001 55.543999 59.543999 61.768002">Gas injection needle</tspan><tspan
               id="tspan556"
               y="0.0024000001"
               x="-13.384">1</tspan></text>
<g
             transform="translate(189.029,135.104)"
             id="g560"><path
               inkscape:connector-curvature="0"
               id="path562"
               style="fill:none;stroke:#000000;stroke-width:0.5;stroke-linecap:round;stroke-linejoin:bevel;stroke-miterlimit:4;stroke-dasharray:none;stroke-opacity:1"
               d="m 0,0 c 0,-3.937 -3.193,-7.128 -7.129,-7.128 -3.936,0 -7.127,3.191 -7.127,7.128 0,3.935 3.191,7.127 7.127,7.127 C -3.193,7.127 0,3.935 0,0 Z" /></g><text
             id="text570"
             style="font-variant:normal;font-weight:normal;font-size:8px;font-family:'Times New Roman';-inkscape-font-specification:Times-Roman;writing-mode:lr-tb;fill:#000000;fill-opacity:1;fill-rule:nonzero;stroke:none"
             transform="matrix(1,0,0,-1,193.285,133.048)"><tspan
               id="tspan564"
               sodipodi:role="line"
               y="0"
               x="0 4.888 8.8879995 11.112 13.776 17.327999 20.879999 23.104 25.327999 29.327999 33.327999 35.327999 37.551998 41.551998 45.551998 49.104 51.104 53.768002 56.880001 60.880001 64.879997 68.431999 71.096001 74.648003 76.648003 80.648003 84.648003 88.199997 90.424004">Extraction tube (square duct)</tspan><tspan
               id="tspan566"
               y="0.39680001"
               x="-13.384">2</tspan><tspan
               id="tspan568"
               y="-43.4608"
               x="-35.5816">2</tspan></text>
<g
             transform="translate(189.026,115.306)"
             id="g572"><path
               inkscape:connector-curvature="0"
               id="path574"
               style="fill:none;stroke:#000000;stroke-width:0.5;stroke-linecap:round;stroke-linejoin:bevel;stroke-miterlimit:4;stroke-dasharray:none;stroke-opacity:1"
               d="m 0,0 c 0,-3.935 -3.19,-7.127 -7.126,-7.127 -3.937,0 -7.127,3.192 -7.127,7.127 0,3.936 3.19,7.128 7.127,7.128 C -3.19,7.128 0,3.936 0,0 Z" /></g><text
             id="text584"
             style="font-variant:normal;font-weight:normal;font-size:8px;font-family:'Times New Roman';-inkscape-font-specification:Times-Roman;writing-mode:lr-tb;fill:#000000;fill-opacity:1;fill-rule:nonzero;stroke:none"
             transform="matrix(1,0,0,-1,193.332,112.764)"><tspan
               id="tspan576"
               sodipodi:role="line"
               y="0"
               x="0 5.336 9.3360004 13.336 17.336 19.559999">Bubble</tspan><tspan
               id="tspan578"
               y="-0.091200002"
               x="-13.432">3</tspan><tspan
               id="tspan580"
               y="-55.584801"
               x="-152.08479">3</tspan><tspan
               id="tspan582"
               y="-97.7024"
               x="-133.9016">4</tspan></text>
<g
             transform="translate(189.029,75.712)"
             id="g586"><path
               inkscape:connector-curvature="0"
               id="path588"
               style="fill:none;stroke:#000000;stroke-width:0.5;stroke-linecap:round;stroke-linejoin:bevel;stroke-miterlimit:4;stroke-dasharray:none;stroke-opacity:1"
               d="m 0,0 c 0,-3.937 -3.192,-7.127 -7.128,-7.127 -3.938,0 -7.128,3.19 -7.128,7.127 0,3.936 3.19,7.126 7.128,7.126 C -3.192,7.126 0,3.936 0,0 Z" /></g><text
             id="text594"
             style="font-variant:normal;font-weight:normal;font-size:8px;font-family:'Times New Roman';-inkscape-font-specification:Times-Roman;writing-mode:lr-tb;fill:#000000;fill-opacity:1;fill-rule:nonzero;stroke:none"
             transform="matrix(1,0,0,-1,179.901,73.259)"><tspan
               id="tspan590"
               y="0"
               x="0">5</tspan><tspan
               id="tspan592"
               y="24.812799"
               x="-130.30161">5</tspan></text>
<g
             transform="translate(189.026,55.914)"
             id="g596"><path
               inkscape:connector-curvature="0"
               id="path598"
               style="fill:none;stroke:#000000;stroke-width:0.5;stroke-linecap:round;stroke-linejoin:bevel;stroke-miterlimit:4;stroke-dasharray:none;stroke-opacity:1"
               d="m 0,0 c 0,-3.937 -3.19,-7.127 -7.126,-7.127 -3.937,0 -7.127,3.19 -7.127,7.127 0,3.936 3.19,7.128 7.127,7.128 C -3.19,7.128 0,3.936 0,0 Z" /></g><text
             id="text604"
             style="font-variant:normal;font-weight:normal;font-size:8px;font-family:'Times New Roman';-inkscape-font-specification:Times-Roman;writing-mode:lr-tb;fill:#000000;fill-opacity:1;fill-rule:nonzero;stroke:none"
             transform="matrix(1,0,0,-1,193.328,53.462)"><tspan
               id="tspan600"
               sodipodi:role="line"
               y="0"
               x="0 4.448 7.112 10.664 13.776 16.888 20.888 23.552 25.775999 29.327999 32.880001 36.880001 38.880001 42.431999 46.431999 49.984001 56.208 60.208 63.759998 -13.428">Pressurized chamber6</tspan><tspan
               id="tspan602"
               y="-32.720001"
               x="-187.95039">6</tspan></text>
<g
             transform="translate(189.029,36.116)"
             id="g606"><path
               inkscape:connector-curvature="0"
               id="path608"
               style="fill:none;stroke:#000000;stroke-width:0.5;stroke-linecap:round;stroke-linejoin:bevel;stroke-miterlimit:4;stroke-dasharray:none;stroke-opacity:1"
               d="m 0,0 c 0,-3.935 -3.191,-7.127 -7.127,-7.127 -3.938,0 -7.129,3.192 -7.129,7.127 0,3.938 3.191,7.129 7.129,7.129 C -3.191,7.129 0,3.938 0,0 Z" /></g><text
             id="text614"
             style="font-variant:normal;font-weight:normal;font-size:8px;font-family:'Times New Roman';-inkscape-font-specification:Times-Roman;writing-mode:lr-tb;fill:#000000;fill-opacity:1;fill-rule:nonzero;stroke:none"
             transform="matrix(1,0,0,-1,193.281,33.665)"><tspan
               id="tspan610"
               sodipodi:role="line"
               y="0"
               x="0 4.888 7.112 11.112 15.112 17.336 21.336 23.336 25.559999 29.559999 32.223999 34.448002 38.248798 -13.38">Liquid inflow7</tspan><tspan
               id="tspan612"
               y="-101.712"
               x="-185.3712">7</tspan></text>
<g
             transform="translate(189.028,95.51)"
             id="g616"><path
               inkscape:connector-curvature="0"
               id="path618"
               style="fill:none;stroke:#000000;stroke-width:0.5;stroke-linecap:round;stroke-linejoin:bevel;stroke-miterlimit:4;stroke-dasharray:none;stroke-opacity:1"
               d="m 0,0 c 0,-3.937 -3.192,-7.129 -7.127,-7.129 -3.938,0 -7.128,3.192 -7.128,7.129 0,3.934 3.19,7.127 7.128,7.127 C -3.192,7.127 0,3.934 0,0 Z" /></g><text
             id="text624"
             style="font-variant:normal;font-weight:normal;font-size:8px;font-family:'Times New Roman';-inkscape-font-specification:Times-Roman;writing-mode:lr-tb;fill:#000000;fill-opacity:1;fill-rule:nonzero;stroke:none"
             transform="matrix(1,0,0,-1,179.9,93.057)"><tspan
               id="tspan620"
               y="0"
               x="0">4</tspan><tspan
               id="tspan622"
               sodipodi:role="line"
               y="-0.26640001"
               x="13.4312 18.319201 22.319201 26.319201 28.319201 32.319199 34.9832 36.9832 39.207199 43.207199 46.759201 48.759201 52.192001 56.192001 58.416 61.080002 64.632004 68.183998 70.407997 72.632004 76.632004 80.632004 82.632004 84.856003 87.080002 91.080002">End of the extraction line</tspan></text>
<g
             transform="translate(278.969,99.489)"
             id="g626"><path
               inkscape:connector-curvature="0"
               id="path628"
               style="fill:#000000;fill-opacity:1;fill-rule:nonzero;stroke:none"
               d="m 0,0 c -1.272,-0.754 -1.962,-1.986 -1.962,-3.306 0,-1.905 1.073,-2.915 1.94,-3.471 l 0.093,0.127 c -1.351,0.868 -1.359,2.606 -1.359,3.417 0,2.018 0.771,2.638 1.359,3.108 L 0,0.003" /></g><g
             transform="translate(281.05,97.329)"
             id="g630"><path
               inkscape:connector-curvature="0"
               id="path632"
               style="fill:#000000;fill-opacity:1;fill-rule:nonzero;stroke:none"
               d="m 0,0 h 0.183 c 0,0 0.016,0 0.024,0.008 0.101,0.047 0.307,-0.103 0.307,-0.223 0,-0.07 -0.285,-1.201 -0.563,-2.247 -0.213,-0.796 -0.406,-1.551 -0.461,-1.78 -0.087,-0.368 -0.191,-0.461 -0.531,-0.47 V -4.84 h 1.628 v 0.12 c -0.373,0 -0.508,0.07 -0.508,0.238 0,0.111 0.134,0.731 0.294,1.32 0.198,-0.105 0.341,-0.136 0.524,-0.136 1.16,0 2.384,1.336 2.384,2.597 0,0.621 -0.348,0.994 -0.914,0.994 -0.517,0 -0.897,-0.254 -1.358,-0.897 l 0.23,0.794 0.025,0.073 c 0,0 -0.009,0.008 -0.017,0.022 L 1.23,0.293 c 0,0.009 -0.008,0.009 -0.008,0.009 L 1.207,0.293 -0.017,0.12 Z m 2.074,-0.048 c 0.342,-0.016 0.493,-0.223 0.493,-0.684 0,-0.523 -0.23,-1.207 -0.571,-1.702 -0.334,-0.468 -0.715,-0.713 -1.129,-0.713 -0.223,0 -0.38,0.118 -0.38,0.294 0,0.27 0.285,1.31 0.517,1.898 0.213,0.541 0.674,0.931 1.071,0.907" /></g><g
             transform="translate(291.858,96.557)"
             id="g634"><path
               inkscape:connector-curvature="0"
               id="path636"
               style="fill:#000000;fill-opacity:1;fill-rule:nonzero;stroke:none"
               d="M -5.308,0 H 0 V 0.44501 H -5.308 Z M 0,0 Z M 0,-1.604 V -1.16 H -5.308 V -1.604 H 0" /></g><g
             transform="translate(294.35,97.329)"
             id="g638"><path
               inkscape:connector-curvature="0"
               id="path640"
               style="fill:#000000;fill-opacity:1;fill-rule:nonzero;stroke:none"
               d="m 0,0 h 0.183 c 0,0 0.015,0 0.023,0.008 0.102,0.047 0.309,-0.103 0.309,-0.223 0,-0.07 -0.285,-1.201 -0.564,-2.247 -0.214,-0.796 -0.405,-1.551 -0.461,-1.78 -0.087,-0.368 -0.191,-0.461 -0.531,-0.47 V -4.84 h 1.627 v 0.12 c -0.372,0 -0.508,0.07 -0.508,0.238 0,0.111 0.135,0.731 0.295,1.32 0.198,-0.105 0.341,-0.136 0.526,-0.136 1.157,0 2.383,1.336 2.383,2.597 0,0.621 -0.349,0.994 -0.914,0.994 -0.516,0 -0.899,-0.254 -1.36,-0.897 L 1.239,0.19 1.263,0.263 c 0,0 -0.009,0.008 -0.017,0.022 L 1.231,0.293 c 0,0.009 -0.009,0.009 -0.009,0.009 L 1.206,0.293 -0.015,0.12 Z m 2.073,-0.048 c 0.343,-0.016 0.495,-0.223 0.495,-0.684 0,-0.523 -0.232,-1.207 -0.573,-1.702 -0.333,-0.468 -0.713,-0.713 -1.127,-0.713 -0.223,0 -0.382,0.118 -0.382,0.294 0,0.27 0.287,1.31 0.517,1.898 0.214,0.541 0.675,0.931 1.072,0.907" /></g><g
             transform="translate(299.887,92.708)"
             id="g642"><path
               inkscape:connector-curvature="0"
               id="path644"
               style="fill:#000000;fill-opacity:1;fill-rule:nonzero;stroke:none"
               d="m 0,0 c -0.081,-0.082 -0.112,-0.108 -0.149,-0.151 -0.161,-0.166 -0.231,-0.22 -0.278,-0.22 -0.044,0 -0.074,0.034 -0.074,0.07 0,0.107 0.222,1.022 0.474,1.943 0.016,0.053 0.022,0.063 0.033,0.11 L -0.03,1.769 -0.358,1.732 -0.374,1.715 -0.434,1.459 c -0.041,0.198 -0.198,0.312 -0.427,0.312 -0.706,0 -1.53,-0.981 -1.53,-1.826 0,-0.374 0.203,-0.594 0.544,-0.594 0.376,0 0.606,0.177 1.076,0.842 -0.105,-0.418 -0.122,-0.488 -0.122,-0.616 0,-0.155 0.065,-0.22 0.214,-0.22 0.214,0 0.347,0.102 0.743,0.588 L 0,0.001 Z m -0.828,1.652 c 0.181,-0.01 0.299,-0.141 0.299,-0.325 0,-0.451 -0.269,-1.081 -0.636,-1.478 -0.129,-0.145 -0.31,-0.236 -0.467,-0.236 -0.187,0 -0.31,0.156 -0.31,0.402 0,0.289 0.204,0.84 0.434,1.172 0.214,0.309 0.466,0.481 0.681,0.465" /></g><g
             transform="translate(300.499,92.712)"
             id="g646"><path
               inkscape:connector-curvature="0"
               id="path648"
               style="fill:#000000;fill-opacity:1;fill-rule:nonzero;stroke:none"
               d="m 0,0 c 1.272,0.755 1.963,1.987 1.963,3.273 0,1.947 -1.072,2.948 -1.94,3.504 L -0.071,6.651 C 1.281,5.784 1.289,4.045 1.289,3.234 1.289,1.215 0.518,0.595 -0.071,0.126 L 0.001,0" /></g><g
             transform="translate(99.709,186.315)"
             id="g650"><path
               inkscape:connector-curvature="0"
               id="path652"
               style="fill:#000000;fill-opacity:1;fill-rule:nonzero;stroke:none"
               d="m 0,0 h -1.581 v -0.127 c 0.253,-0.023 0.332,-0.041 0.428,-0.102 0.08,-0.048 0.135,-0.159 0.135,-0.262 0,-0.129 -0.205,-0.938 -0.588,-2.281 -0.031,-0.105 -0.062,-0.237 -0.104,-0.39 -0.142,-0.516 -0.261,-0.834 -0.434,-1.105 -0.312,-0.492 -0.74,-0.738 -1.296,-0.738 -0.662,0 -1.112,0.38 -1.112,0.938 0,0.269 0.245,1.23 0.778,3.066 0.016,0.057 0.031,0.114 0.039,0.153 0.167,0.555 0.295,0.667 0.834,0.721 V 0.001 H -5.07 v -0.128 c 0.532,-0.046 0.62,-0.093 0.62,-0.326 0,-0.095 -0.025,-0.222 -0.057,-0.358 L -4.928,-2.336 C -5.165,-3.194 -5.27,-3.703 -5.27,-4.02 c 0,-0.764 0.732,-1.312 1.734,-1.312 1.041,0 1.7,0.566 2.05,1.756 l 0.659,2.267 c 0.302,1.033 0.332,1.072 0.827,1.182 v 0.128" /></g><g
             transform="translate(102.633,186.315)"
             id="g654"><path
               inkscape:connector-curvature="0"
               id="path656"
               style="fill:#000000;fill-opacity:1;fill-rule:nonzero;stroke:none"
               d="m 0,0 h -2.171 v -0.127 c 0.494,-0.048 0.613,-0.11 0.613,-0.342 0,-0.111 -0.033,-0.293 -0.087,-0.492 L -2.623,-4.473 C -2.765,-4.934 -2.821,-4.981 -3.267,-5.061 V -5.189 H 0.778 L 1.239,-3.767 1.08,-3.719 C 0.802,-4.29 0.588,-4.546 0.238,-4.72 c -0.277,-0.134 -0.603,-0.182 -1.294,-0.182 -0.604,0 -0.803,0.062 -0.803,0.268 0,0.056 0.039,0.247 0.078,0.397 l 0.978,3.521 c 0.119,0.405 0.327,0.556 0.803,0.588 v 0.127" /></g><g
             transform="translate(106.37,184.759)"
             id="g658"><path
               inkscape:connector-curvature="0"
               id="path660"
               style="fill:#000000;fill-opacity:1;fill-rule:nonzero;stroke:none"
               d="m 0,0 -0.07,0.029 c -0.197,-0.306 -0.268,-0.355 -0.508,-0.355 h -1.278 l 0.898,0.942 c 0.477,0.499 0.684,0.903 0.684,1.32 0,0.537 -0.433,0.947 -0.988,0.947 -0.295,0 -0.573,-0.118 -0.771,-0.331 -0.17,-0.18 -0.252,-0.351 -0.342,-0.733 l 0.113,-0.026 c 0.215,0.522 0.406,0.694 0.775,0.694 0.45,0 0.755,-0.305 0.755,-0.754 0,-0.418 -0.245,-0.914 -0.694,-1.392 l -0.953,-1.01 v -0.065 h 2.086 L 0.001,0" /></g><g
             transform="translate(101.422,143.685)"
             id="g662"><path
               inkscape:connector-curvature="0"
               id="path664"
               style="fill:#000000;fill-opacity:1;fill-rule:nonzero;stroke:none"
               d="m 0,0 c -0.43,-0.494 -0.517,-0.566 -0.652,-0.566 -0.08,0 -0.144,0.072 -0.144,0.158 0,0.111 0.256,1.082 0.517,1.956 0.214,0.731 0.381,1.367 0.787,2.956 L 0.469,4.545 C 0.047,4.458 -0.24,4.408 -0.748,4.361 V 4.225 C -0.312,4.21 -0.255,4.186 -0.255,4.02 -0.255,3.917 -0.263,3.867 -0.374,3.464 L -0.724,2.16 c -0.065,0.334 -0.207,0.461 -0.518,0.461 -1.033,0 -2.32,-1.493 -2.32,-2.685 0,-0.565 0.32,-0.907 0.834,-0.907 0.541,0 0.891,0.256 1.431,1.049 -0.087,-0.405 -0.103,-0.523 -0.103,-0.707 0,-0.215 0.134,-0.357 0.334,-0.357 0.333,0 0.746,0.325 1.16,0.906 L -0.001,0 Z m -1.208,2.439 c 0.238,-0.016 0.359,-0.168 0.359,-0.453 0,-1.209 -0.828,-2.576 -1.559,-2.576 -0.269,0 -0.461,0.217 -0.461,0.526 0,0.658 0.397,1.58 0.922,2.138 0.223,0.231 0.516,0.381 0.739,0.365" /></g><g
             transform="translate(102.331,145.041)"
             id="g666"><path
               inkscape:connector-curvature="0"
               id="path668"
               style="fill:#000000;fill-opacity:1;fill-rule:nonzero;stroke:none"
               d="m 0,0 c 0.316,-0.011 0.347,-0.027 0.347,-0.144 0,-0.047 -0.015,-0.112 -0.048,-0.229 -0.01,-0.037 -0.02,-0.076 -0.026,-0.103 l -0.012,-0.037 -0.726,-2.68 v -0.021 c 0,-0.123 0.41,-0.284 0.711,-0.284 0.808,0 1.695,0.936 1.695,1.777 0,0.375 -0.262,0.643 -0.621,0.643 -0.375,0 -0.652,-0.221 -1.033,-0.809 0.278,1.016 0.316,1.161 0.556,2.075 L 0.816,0.215 C 0.549,0.168 0.357,0.135 0,0.092 Z m 1.113,-1.342 c 0.23,0 0.373,-0.177 0.373,-0.459 0,-0.353 -0.271,-0.927 -0.587,-1.258 -0.198,-0.203 -0.427,-0.316 -0.657,-0.316 -0.168,0 -0.248,0.059 -0.248,0.182 0,0.322 0.162,0.84 0.387,1.236 0.233,0.412 0.474,0.615 0.732,0.615" /></g><g
             transform="translate(57.75,119.758)"
             id="g670"><path
               inkscape:connector-curvature="0"
               id="path672"
               style="fill:#000000;fill-opacity:1;fill-rule:nonzero;stroke:none"
               d="m 0,0 c -0.008,-1.041 -0.674,-2.178 -1.422,-2.178 -0.333,0 -0.556,0.399 -0.556,0.97 0,0.23 0.031,0.478 0.111,0.747 0.295,1.041 0.747,1.463 1.184,1.463 C -0.357,1.002 0,0.701 0,0 Z m -2.24,-1.622 c 0.166,-0.547 0.477,-0.786 0.881,-0.786 0.627,0 1.916,0.953 1.916,2.202 0,0.985 -0.596,1.478 -1.129,1.478 -1.527,0 -1.98,-1.98 -2.186,-2.702 l -0.595,-2.075 c -0.008,-0.022 -0.008,-0.055 -0.008,-0.079 0,-0.142 0.127,-0.23 0.254,-0.23 0.119,0 0.246,0.071 0.293,0.237 l 0.574,1.955" /></g><g
             transform="translate(60.055,117.414)"
             id="g674"><path
               inkscape:connector-curvature="0"
               id="path676"
               style="fill:#000000;fill-opacity:1;fill-rule:nonzero;stroke:none"
               d="m 0,0 c 0.047,0 0.127,-0.056 0.127,-0.191 0,-0.104 -0.031,-0.406 -0.531,-0.764 l 0.07,-0.158 c 0.414,0.279 0.747,0.676 0.747,1.24 0,0.571 -0.325,0.682 -0.5,0.682 -0.127,0 -0.461,-0.016 -0.461,-0.451 0,-0.295 0.263,-0.392 0.397,-0.392 0.064,0 0.088,0.033 0.152,0.033" /></g><g
             transform="translate(66.289,118.241)"
             id="g678"><path
               inkscape:connector-curvature="0"
               id="path680"
               style="fill:#000000;fill-opacity:1;fill-rule:nonzero;stroke:none"
               d="m 0,0 c 0.016,-0.359 0.159,-0.883 0.675,-0.883 0.652,0 1.018,0.73 1.161,1.256 H 1.693 c -0.198,-0.62 -0.532,-0.899 -0.897,-0.899 -0.192,0 -0.304,0.184 -0.304,0.461 0,0.096 0.008,0.206 0.042,0.318 L 1.128,2.701 H 0.526 L 0.143,1.199 c -0.357,-1.424 -1.073,-1.852 -1.328,-1.852 -0.269,0 -0.564,0.237 -0.564,0.785 0,0.153 0.023,0.309 0.064,0.485 l 0.509,2.082 H -1.741 L -2.91,-1.91 c -0.008,-0.031 -0.016,-0.063 -0.016,-0.094 0,-0.168 0.136,-0.287 0.278,-0.287 0.128,0 0.255,0.088 0.311,0.302 l 0.444,1.821 h 0.01 c 0,-0.224 0.19,-0.717 0.594,-0.717 0.659,0 1.24,0.771 1.288,0.883" /></g><g
             transform="translate(34.999,86.722)"
             id="g682"><path
               inkscape:connector-curvature="0"
               id="path684"
               style="fill:#000000;fill-opacity:1;fill-rule:nonzero;stroke:none"
               d="m 0,0 h 0.182 c 0,0 0.017,0 0.024,0.008 0.103,0.046 0.308,-0.104 0.308,-0.223 0,-0.07 -0.286,-1.202 -0.563,-2.249 -0.214,-0.794 -0.405,-1.55 -0.461,-1.78 -0.087,-0.366 -0.192,-0.461 -0.532,-0.47 V -4.84 h 1.629 v 0.118 c -0.373,0 -0.508,0.071 -0.508,0.239 0,0.112 0.133,0.73 0.293,1.32 0.199,-0.105 0.343,-0.137 0.525,-0.137 1.159,0 2.384,1.336 2.384,2.599 0,0.62 -0.349,0.994 -0.914,0.994 -0.517,0 -0.898,-0.254 -1.359,-0.897 L 1.239,0.19 1.263,0.263 c 0,0 -0.008,0.008 -0.016,0.022 L 1.23,0.293 c 0,0.009 -0.007,0.009 -0.007,0.009 L 1.207,0.293 -0.017,0.118 Z m 2.074,-0.05 c 0.341,-0.015 0.493,-0.221 0.493,-0.682 0,-0.525 -0.23,-1.208 -0.572,-1.702 -0.334,-0.468 -0.714,-0.715 -1.128,-0.715 -0.222,0 -0.381,0.12 -0.381,0.295 0,0.269 0.285,1.311 0.517,1.898 0.213,0.542 0.674,0.931 1.072,0.906" /></g><g
             transform="translate(39.493,83.469)"
             id="g686"><path
               inkscape:connector-curvature="0"
               id="path688"
               style="fill:#000000;fill-opacity:1;fill-rule:nonzero;stroke:none"
               d="m 0,0 c -0.803,0 -1.594,-0.829 -1.594,-1.668 0,-0.461 0.299,-0.75 0.787,-0.75 0.353,0 0.694,0.16 1.006,0.465 0.352,0.349 0.566,0.804 0.566,1.203 C 0.765,-0.304 0.456,0 0.001,0 Z m -0.067,-0.11 c 0.232,0 0.381,-0.198 0.381,-0.504 0,-0.391 -0.177,-0.925 -0.411,-1.273 -0.198,-0.283 -0.402,-0.417 -0.632,-0.417 -0.252,0 -0.416,0.191 -0.416,0.488 0,0.394 0.155,0.866 0.416,1.245 0.209,0.3 0.434,0.461 0.663,0.461" /></g><g
             transform="translate(47.759,85.33)"
             id="g690"><path
               inkscape:connector-curvature="0"
               id="path692"
               style="fill:#000000;fill-opacity:1;fill-rule:nonzero;stroke:none"
               d="m 0,0 -3.728,-1.439 v -0.366 l 4.65,1.78 v 0.048 l -4.65,1.773 V 1.414 L 0,0" /></g><g
             transform="translate(51.398,86.722)"
             id="g694"><path
               inkscape:connector-curvature="0"
               id="path696"
               style="fill:#000000;fill-opacity:1;fill-rule:nonzero;stroke:none"
               d="m 0,0 h 0.184 c 0,0 0.015,0 0.022,0.008 0.103,0.046 0.31,-0.104 0.31,-0.223 0,-0.07 -0.286,-1.202 -0.565,-2.249 -0.213,-0.794 -0.404,-1.55 -0.461,-1.78 -0.087,-0.366 -0.19,-0.461 -0.531,-0.47 V -4.84 h 1.629 v 0.118 c -0.373,0 -0.509,0.071 -0.509,0.239 0,0.112 0.135,0.73 0.294,1.32 0.198,-0.105 0.342,-0.137 0.525,-0.137 1.16,0 2.383,1.336 2.383,2.599 0,0.62 -0.347,0.994 -0.914,0.994 -0.515,0 -0.896,-0.254 -1.357,-0.897 L 1.239,0.19 1.265,0.263 c 0,0 -0.009,0.008 -0.018,0.022 L 1.231,0.293 c 0,0.009 -0.008,0.009 -0.008,0.009 L 1.207,0.293 -0.015,0.118 Z m 2.074,-0.05 c 0.342,-0.015 0.494,-0.221 0.494,-0.682 0,-0.525 -0.23,-1.208 -0.573,-1.702 -0.333,-0.468 -0.714,-0.715 -1.128,-0.715 -0.222,0 -0.381,0.12 -0.381,0.295 0,0.269 0.287,1.311 0.518,1.898 0.214,0.542 0.675,0.931 1.071,0.906" /></g><g
             transform="translate(56.634,81.7)"
             id="g698"><path
               inkscape:connector-curvature="0"
               id="path700"
               style="fill:#000000;fill-opacity:1;fill-rule:nonzero;stroke:none"
               d="m 0,0 c -0.079,-0.081 -0.11,-0.107 -0.147,-0.15 -0.162,-0.167 -0.232,-0.22 -0.279,-0.22 -0.043,0 -0.075,0.034 -0.075,0.07 0,0.106 0.224,1.021 0.476,1.943 0.017,0.052 0.021,0.062 0.032,0.109 L -0.029,1.769 -0.356,1.733 -0.372,1.716 -0.431,1.461 c -0.042,0.198 -0.199,0.311 -0.428,0.311 -0.706,0 -1.53,-0.981 -1.53,-1.827 0,-0.372 0.203,-0.594 0.545,-0.594 0.375,0 0.605,0.179 1.074,0.843 -0.106,-0.418 -0.121,-0.489 -0.121,-0.616 0,-0.156 0.063,-0.22 0.214,-0.22 0.213,0 0.346,0.103 0.742,0.587 L 0,0.001 Z m -0.828,1.652 c 0.182,-0.009 0.301,-0.139 0.301,-0.324 0,-0.451 -0.27,-1.082 -0.638,-1.478 -0.128,-0.145 -0.308,-0.237 -0.465,-0.237 -0.187,0 -0.309,0.156 -0.309,0.402 0,0.289 0.203,0.84 0.433,1.172 0.213,0.31 0.466,0.482 0.679,0.465" /></g><g
             transform="translate(92.528,81.588)"
             id="g702"><path
               inkscape:connector-curvature="0"
               id="path704"
               style="fill:#000000;fill-opacity:1;fill-rule:nonzero;stroke:none"
               d="m 0,0 h 0.183 c 0,0 0.016,0 0.023,0.008 0.103,0.046 0.309,-0.103 0.309,-0.223 0,-0.071 -0.286,-1.201 -0.564,-2.248 C -0.262,-3.258 -0.454,-4.015 -0.51,-4.244 -0.597,-4.61 -0.701,-4.705 -1.041,-4.713 V -4.84 h 1.628 v 0.12 c -0.373,0 -0.508,0.07 -0.508,0.237 0,0.112 0.134,0.731 0.294,1.32 0.198,-0.104 0.342,-0.135 0.525,-0.135 1.159,0 2.383,1.335 2.383,2.597 0,0.621 -0.348,0.994 -0.914,0.994 -0.516,0 -0.898,-0.254 -1.358,-0.897 l 0.23,0.794 0.025,0.073 c 0,0 -0.009,0.007 -0.017,0.022 L 1.23,0.293 c 0,0.009 -0.007,0.009 -0.007,0.009 L 1.207,0.293 -0.016,0.118 Z m 2.074,-0.048 c 0.342,-0.016 0.493,-0.223 0.493,-0.684 0,-0.525 -0.23,-1.207 -0.572,-1.702 -0.333,-0.469 -0.714,-0.713 -1.128,-0.713 -0.222,0 -0.381,0.118 -0.381,0.294 0,0.268 0.285,1.31 0.517,1.898 0.214,0.541 0.675,0.93 1.072,0.907" /></g><g
             transform="translate(97.409,78.144)"
             id="g706"><path
               inkscape:connector-curvature="0"
               id="path708"
               style="fill:#000000;fill-opacity:1;fill-rule:nonzero;stroke:none"
               d="m 0,0 h -0.327 c -0.016,0 -0.042,0.01 -0.086,0.043 -0.144,0.095 -0.32,0.151 -0.523,0.151 -0.594,0 -1.075,-0.412 -1.075,-0.917 0,-0.277 0.116,-0.437 0.422,-0.578 -0.316,-0.212 -0.412,-0.32 -0.412,-0.448 0,-0.07 0.044,-0.135 0.144,-0.208 -0.528,-0.349 -0.626,-0.456 -0.626,-0.703 0,-0.369 0.353,-0.61 0.894,-0.61 0.673,0 1.123,0.318 1.123,0.781 0,0.336 -0.257,0.573 -0.766,0.706 -0.234,0.059 -0.373,0.145 -0.373,0.224 0,0.083 0.122,0.221 0.192,0.221 0.011,0 0.021,0 0.038,-0.005 0.042,-0.013 0.117,-0.017 0.166,-0.017 0.488,0 0.989,0.433 0.989,0.851 0,0.085 -0.016,0.191 -0.048,0.299 H 0 Z m -1.733,-2.017 c 0.004,0 0.016,-0.005 0.027,-0.011 0.016,-0.005 0.068,-0.023 0.155,-0.048 0.567,-0.177 0.766,-0.327 0.766,-0.571 0,-0.289 -0.311,-0.504 -0.723,-0.504 -0.428,0 -0.678,0.203 -0.678,0.545 0,0.128 0.031,0.219 0.117,0.322 0.069,0.091 0.293,0.267 0.337,0.267 z m 0.79,2.091 c 0.199,0 0.3,-0.128 0.3,-0.38 0,-0.186 -0.063,-0.422 -0.166,-0.604 -0.115,-0.22 -0.283,-0.336 -0.466,-0.336 -0.203,0 -0.319,0.148 -0.319,0.401 0,0.492 0.305,0.919 0.651,0.919" /></g><g
             transform="translate(92.276,11.372)"
             id="g710"><path
               inkscape:connector-curvature="0"
               id="path712"
               style="fill:#000000;fill-opacity:1;fill-rule:nonzero;stroke:none"
               d="M 0,0 C 0.613,0.039 0.914,0.12 1.358,0.366 2.534,1.025 3.337,2.312 3.337,3.567 3.337,4.64 2.575,5.42 1.516,5.42 0.883,5.42 0.167,5.095 -0.469,4.523 -1.273,3.776 -1.742,2.814 -1.742,1.884 c 0,-0.653 0.239,-1.191 0.668,-1.527 0.207,-0.166 0.383,-0.245 0.731,-0.326 -0.723,-0.635 -0.794,-0.698 -1.406,-1.128 l 0.08,-0.119 c 0.302,0.168 0.603,0.247 0.914,0.247 0.159,0 0.388,-0.047 0.738,-0.142 0.484,-0.137 0.914,-0.217 1.208,-0.217 0.439,0 0.994,0.208 1.399,0.526 0.191,0.143 0.293,0.255 0.5,0.541 L 2.97,-0.173 C 2.525,-0.634 2.201,-0.784 1.629,-0.784 c -0.208,0 -0.374,0.031 -0.979,0.174 -0.411,0.102 -0.785,0.175 -0.834,0.167 -0.03,-0.008 -0.047,-0.008 -0.047,-0.008 H -0.43 L 0,0.002 Z M 1.477,5.156 C 2.114,5.156 2.503,4.695 2.503,3.941 2.503,3.099 2.13,1.932 1.622,1.2 1.184,0.571 0.69,0.261 0.11,0.261 c -0.644,0 -1.016,0.486 -1.016,1.319 0,0.756 0.388,1.94 0.875,2.631 0.444,0.644 0.929,0.945 1.508,0.945" /></g><g
             transform="translate(97.983,12.465)"
             id="g714"><path
               inkscape:connector-curvature="0"
               id="path716"
               style="fill:#000000;fill-opacity:1;fill-rule:nonzero;stroke:none"
               d="m 0,0 h -0.326 c -0.016,0 -0.042,0.011 -0.085,0.045 -0.145,0.093 -0.321,0.149 -0.524,0.149 -0.594,0 -1.075,-0.412 -1.075,-0.915 0,-0.279 0.117,-0.437 0.421,-0.578 -0.315,-0.213 -0.412,-0.322 -0.412,-0.451 0,-0.068 0.044,-0.134 0.146,-0.206 -0.53,-0.35 -0.627,-0.456 -0.627,-0.702 0,-0.37 0.352,-0.61 0.893,-0.61 0.673,0 1.123,0.315 1.123,0.782 0,0.336 -0.255,0.571 -0.765,0.704 -0.235,0.059 -0.373,0.144 -0.373,0.225 0,0.081 0.123,0.22 0.193,0.22 0.01,0 0.02,0 0.036,-0.006 0.042,-0.011 0.117,-0.016 0.167,-0.016 0.488,0 0.988,0.432 0.988,0.85 0,0.086 -0.015,0.192 -0.046,0.3 H 0 Z m -1.732,-2.016 c 0.005,0 0.016,-0.007 0.026,-0.011 0.017,-0.005 0.069,-0.022 0.155,-0.048 0.568,-0.177 0.767,-0.327 0.767,-0.573 0,-0.289 -0.311,-0.502 -0.724,-0.502 -0.426,0 -0.677,0.203 -0.677,0.545 0,0.128 0.031,0.22 0.117,0.322 0.068,0.091 0.294,0.267 0.337,0.267 z m 0.79,2.092 c 0.199,0 0.301,-0.13 0.301,-0.382 0,-0.186 -0.065,-0.421 -0.166,-0.604 -0.117,-0.22 -0.284,-0.336 -0.466,-0.336 -0.204,0 -0.321,0.15 -0.321,0.401 0,0.493 0.305,0.921 0.652,0.921" /></g><path
             inkscape:connector-curvature="0"
             id="path718"
             style="fill:#000000;fill-opacity:1;fill-rule:nonzero;stroke:none"
             d="m 81.99,104.547 h 4.8638 v 0.398 H 81.99 Z" /><g
             transform="translate(92.217,103.642)"
             id="g720"><path
               inkscape:connector-curvature="0"
               id="path722"
               style="fill:#000000;fill-opacity:1;fill-rule:nonzero;stroke:none"
               d="m 0,0 c -0.064,-0.072 -0.105,-0.12 -0.174,-0.216 -0.183,-0.237 -0.278,-0.317 -0.367,-0.317 -0.12,0 -0.191,0.103 -0.246,0.326 -0.016,0.062 -0.023,0.112 -0.031,0.135 -0.198,0.802 -0.287,1.167 -0.287,1.288 0.348,0.611 0.636,0.961 0.779,0.961 0.047,0 0.11,-0.022 0.191,-0.064 0.094,-0.055 0.151,-0.07 0.213,-0.07 0.167,0 0.278,0.12 0.278,0.285 0,0.168 -0.134,0.296 -0.325,0.296 -0.349,0 -0.651,-0.287 -1.2,-1.137 l -0.087,0.436 c -0.111,0.542 -0.198,0.701 -0.412,0.701 -0.174,0 -0.445,-0.073 -0.93,-0.232 l -0.087,-0.03 0.031,-0.12 c 0.302,0.073 0.373,0.089 0.445,0.089 0.199,0 0.245,-0.073 0.358,-0.55 L -1.62,0.803 -2.273,-0.126 c -0.159,-0.237 -0.317,-0.382 -0.405,-0.382 -0.048,0 -0.127,0.024 -0.207,0.073 -0.104,0.055 -0.191,0.079 -0.254,0.079 -0.152,0 -0.269,-0.118 -0.269,-0.277 0,-0.208 0.157,-0.333 0.396,-0.333 0.248,0 0.342,0.071 0.739,0.556 0.214,0.254 0.382,0.468 0.716,0.929 l 0.239,-0.953 c 0.102,-0.406 0.207,-0.532 0.461,-0.532 0.302,0 0.509,0.19 0.97,0.906 L 0.001,0.004" /></g><g
             transform="translate(99.875,105.198)"
             id="g724"><path
               inkscape:connector-curvature="0"
               id="path726"
               style="fill:#000000;fill-opacity:1;fill-rule:nonzero;stroke:none"
               d="M -5.308,0 H -2e-4 V 0.445 H -5.308 Z M 0,0 Z M 0,-1.604 V -1.16 H -5.308 V -1.604 H 0" /></g><g
             transform="translate(103.942,108.13)"
             id="g728"><path
               inkscape:connector-curvature="0"
               id="path730"
               style="fill:#000000;fill-opacity:1;fill-rule:nonzero;stroke:none"
               d="m 0,0 c -0.438,0 -0.77,-0.133 -1.067,-0.411 -0.461,-0.446 -0.761,-1.36 -0.761,-2.289 0,-0.866 0.263,-1.797 0.636,-2.241 0.293,-0.349 0.7,-0.541 1.161,-0.541 0.405,0 0.746,0.133 1.032,0.413 0.461,0.439 0.764,1.358 0.764,2.319 C 1.765,-1.118 1.042,0 0,0 Z M -0.024,-0.204 C 0.642,-0.204 1,-1.103 1,-2.764 1,-4.426 0.65,-5.275 -0.032,-5.275 c -0.684,0 -1.035,0.849 -1.035,2.503 0,1.685 0.359,2.568 1.043,2.568" /></g><text
             id="text734"
             style="font-variant:normal;font-weight:normal;font-size:8px;font-family:'Times New Roman';-inkscape-font-specification:Times-Roman;writing-mode:lr-tb;fill:#000000;fill-opacity:1;fill-rule:nonzero;stroke:none"
             transform="matrix(1,0,0,-1,193.328,73.04)"><tspan
               id="tspan732"
               sodipodi:role="line"
               y="0"
               x="0 5.776 8 10.664 12.664 18.888 22.440001 26.440001 28.664 31.775999 35.327999 39.327999">Air meniscus</tspan></text>
<g
             transform="translate(239.737,78.978)"
             id="g736"><path
               inkscape:connector-curvature="0"
               id="path738"
               style="fill:#000000;fill-opacity:1;fill-rule:nonzero;stroke:none"
               d="m 0,0 c -1.272,-0.754 -1.961,-1.985 -1.961,-3.305 0,-1.906 1.072,-2.916 1.939,-3.472 l 0.094,0.126 c -1.352,0.867 -1.358,2.607 -1.358,3.417 0,2.021 0.771,2.64 1.358,3.109 L 0,0.001" /></g><g
             transform="translate(241.72,76.818)"
             id="g740"><path
               inkscape:connector-curvature="0"
               id="path742"
               style="fill:#000000;fill-opacity:1;fill-rule:nonzero;stroke:none"
               d="m 0,0 h 0.185 c 0,0 0.016,0 0.024,0.008 0.101,0.047 0.307,-0.103 0.307,-0.223 0,-0.07 -0.285,-1.2 -0.564,-2.248 -0.213,-0.795 -0.405,-1.55 -0.461,-1.78 -0.087,-0.366 -0.19,-0.461 -0.531,-0.469 V -4.84 h 1.629 v 0.12 c -0.372,0 -0.509,0.069 -0.509,0.237 0,0.112 0.134,0.732 0.294,1.32 0.198,-0.104 0.343,-0.135 0.525,-0.135 1.16,0 2.383,1.336 2.383,2.597 0,0.62 -0.347,0.994 -0.914,0.994 -0.516,0 -0.896,-0.254 -1.357,-0.897 L 1.24,0.191 1.266,0.262 c 0,0 -0.009,0.009 -0.017,0.023 L 1.232,0.293 c 0,0.008 -0.008,0.008 -0.008,0.008 L 1.209,0.293 -0.015,0.119 Z m 2.076,-0.048 c 0.341,-0.017 0.493,-0.221 0.493,-0.682 0,-0.527 -0.23,-1.21 -0.573,-1.704 -0.333,-0.468 -0.714,-0.713 -1.128,-0.713 -0.222,0 -0.381,0.118 -0.381,0.294 0,0.27 0.287,1.31 0.519,1.897 0.213,0.542 0.674,0.933 1.07,0.907" /></g><g
             transform="translate(252.53,76.046)"
             id="g744"><path
               inkscape:connector-curvature="0"
               id="path746"
               style="fill:#000000;fill-opacity:1;fill-rule:nonzero;stroke:none"
               d="M -5.31,0 H 0 V 0.445 H -5.31 Z M 0,0 Z M 0,-1.606 V -1.16 H -5.31 V -1.606 H 0" /></g><g
             transform="translate(255.022,76.818)"
             id="g748"><path
               inkscape:connector-curvature="0"
               id="path750"
               style="fill:#000000;fill-opacity:1;fill-rule:nonzero;stroke:none"
               d="m 0,0 h 0.183 c 0,0 0.015,0 0.023,0.008 0.102,0.047 0.309,-0.103 0.309,-0.223 0,-0.07 -0.287,-1.2 -0.564,-2.248 -0.215,-0.795 -0.405,-1.55 -0.461,-1.78 -0.088,-0.366 -0.191,-0.461 -0.531,-0.469 V -4.84 h 1.627 v 0.12 c -0.372,0 -0.507,0.069 -0.507,0.237 0,0.112 0.134,0.732 0.294,1.32 0.198,-0.104 0.341,-0.135 0.525,-0.135 1.158,0 2.384,1.336 2.384,2.597 0,0.62 -0.349,0.994 -0.914,0.994 -0.517,0 -0.899,-0.254 -1.36,-0.897 l 0.229,0.795 0.027,0.071 c 0,0 -0.01,0.009 -0.017,0.023 L 1.23,0.293 c 0,0.008 -0.008,0.008 -0.008,0.008 L 1.206,0.293 -0.016,0.119 Z m 2.073,-0.048 c 0.343,-0.017 0.494,-0.221 0.494,-0.682 0,-0.527 -0.231,-1.21 -0.573,-1.704 -0.332,-0.468 -0.712,-0.713 -1.126,-0.713 -0.224,0 -0.383,0.118 -0.383,0.294 0,0.27 0.286,1.31 0.518,1.897 0.214,0.542 0.675,0.933 1.07,0.907" /></g><g
             transform="translate(260.302,73.772)"
             id="g752"><path
               inkscape:connector-curvature="0"
               id="path754"
               style="fill:#000000;fill-opacity:1;fill-rule:nonzero;stroke:none"
               d="m 0,0 h -0.326 c -0.017,0 -0.042,0.012 -0.086,0.045 -0.145,0.096 -0.321,0.151 -0.524,0.151 -0.594,0 -1.075,-0.413 -1.075,-0.917 0,-0.279 0.117,-0.437 0.422,-0.577 -0.315,-0.213 -0.412,-0.321 -0.412,-0.45 0,-0.068 0.044,-0.134 0.145,-0.207 -0.53,-0.349 -0.627,-0.456 -0.627,-0.703 0,-0.369 0.352,-0.609 0.894,-0.609 0.674,0 1.122,0.316 1.122,0.78 0,0.336 -0.255,0.573 -0.766,0.706 -0.234,0.06 -0.372,0.146 -0.372,0.225 0,0.081 0.122,0.221 0.193,0.221 0.01,0 0.02,0 0.037,-0.007 0.042,-0.01 0.118,-0.016 0.166,-0.016 0.488,0 0.989,0.434 0.989,0.851 0,0.086 -0.015,0.192 -0.046,0.299 H 0 Z m -1.733,-2.015 c 0.006,0 0.016,-0.005 0.028,-0.011 0.015,-0.005 0.067,-0.022 0.153,-0.048 0.568,-0.177 0.767,-0.327 0.767,-0.571 0,-0.289 -0.311,-0.503 -0.722,-0.503 -0.429,0 -0.679,0.202 -0.679,0.544 0,0.128 0.032,0.22 0.117,0.322 0.069,0.092 0.295,0.267 0.338,0.267 z m 0.791,2.091 c 0.199,0 0.3,-0.128 0.3,-0.38 0,-0.188 -0.063,-0.422 -0.166,-0.604 -0.117,-0.219 -0.284,-0.336 -0.466,-0.336 -0.203,0 -0.321,0.149 -0.321,0.401 0,0.492 0.306,0.919 0.653,0.919" /></g><g
             transform="translate(267.312,73.845)"
             id="g756"><path
               inkscape:connector-curvature="0"
               id="path758"
               style="fill:#000000;fill-opacity:1;fill-rule:nonzero;stroke:none"
               d="M -5.318,0 H 0 V 0.39799 H -5.318 Z M 0,0 Z M 0.008,3.679 C -0.127,3.201 -0.756,2.47 -1.368,2.47 c -0.834,0 -1.541,1.296 -2.591,1.296 -0.612,0 -1.2,-0.595 -1.359,-0.984 V 2.185 h 0.008 c 0.185,0.643 0.881,1.192 1.351,1.192 0.883,0 1.581,-1.302 2.591,-1.302 0.628,0 1.271,0.635 1.383,1.032 V 3.671 L 0.008,3.679" /></g><g
             transform="translate(270.043,76.818)"
             id="g760"><path
               inkscape:connector-curvature="0"
               id="path762"
               style="fill:#000000;fill-opacity:1;fill-rule:nonzero;stroke:none"
               d="m 0,0 h 0.184 c 0,0 0.016,0 0.022,0.008 0.104,0.047 0.31,-0.103 0.31,-0.223 0,-0.07 -0.286,-1.2 -0.564,-2.248 -0.215,-0.795 -0.405,-1.55 -0.461,-1.78 C -0.596,-4.609 -0.7,-4.704 -1.04,-4.712 V -4.84 h 1.628 v 0.12 c -0.374,0 -0.508,0.069 -0.508,0.237 0,0.112 0.134,0.732 0.294,1.32 0.198,-0.104 0.343,-0.135 0.525,-0.135 1.159,0 2.383,1.336 2.383,2.597 0,0.62 -0.348,0.994 -0.914,0.994 -0.516,0 -0.897,-0.254 -1.358,-0.897 l 0.23,0.795 0.026,0.071 c 0,0 -0.01,0.009 -0.018,0.023 L 1.232,0.293 c 0,0.008 -0.008,0.008 -0.008,0.008 L 1.207,0.293 -0.015,0.119 Z m 2.075,-0.048 c 0.342,-0.017 0.494,-0.221 0.494,-0.682 0,-0.527 -0.231,-1.21 -0.574,-1.704 -0.332,-0.468 -0.713,-0.713 -1.127,-0.713 -0.222,0 -0.381,0.118 -0.381,0.294 0,0.27 0.287,1.31 0.516,1.897 0.216,0.542 0.677,0.933 1.073,0.907" /></g><g
             transform="translate(274.138,73.567)"
             id="g764"><path
               inkscape:connector-curvature="0"
               id="path766"
               style="fill:#000000;fill-opacity:1;fill-rule:nonzero;stroke:none"
               d="m 0,0 c -0.802,0 -1.595,-0.83 -1.595,-1.67 0,-0.46 0.301,-0.75 0.788,-0.75 0.354,0 0.695,0.162 1.005,0.467 0.353,0.347 0.568,0.803 0.568,1.203 0,0.444 -0.31,0.75 -0.764,0.75 z m -0.065,-0.112 c 0.231,0 0.381,-0.2 0.381,-0.504 0,-0.391 -0.178,-0.925 -0.412,-1.272 -0.198,-0.283 -0.402,-0.418 -0.631,-0.418 -0.252,0 -0.417,0.192 -0.417,0.488 0,0.396 0.155,0.866 0.417,1.246 0.209,0.3 0.433,0.461 0.662,0.461" /></g><g
             transform="translate(275.894,72.201)"
             id="g768"><path
               inkscape:connector-curvature="0"
               id="path770"
               style="fill:#000000;fill-opacity:1;fill-rule:nonzero;stroke:none"
               d="M 0,0 C 1.272,0.754 1.963,1.986 1.963,3.273 1.963,5.22 0.89,6.22 0.023,6.777 L -0.071,6.651 C 1.281,5.784 1.288,4.044 1.288,3.234 1.288,1.215 0.518,0.595 -0.071,0.126 L 0,-0.001" /></g><g
             transform="translate(80.577,218.351)"
             id="g772"><path
               inkscape:connector-curvature="0"
               id="path774"
               style="fill:#000000;fill-opacity:1;fill-rule:nonzero;stroke:none"
               d="m 0,0 h 0.244 c 0,0 0.022,0 0.03,0.01 0.137,0.063 0.413,-0.137 0.413,-0.297 0,-0.093 -0.382,-1.6 -0.753,-2.996 -0.286,-1.061 -0.54,-2.068 -0.614,-2.374 -0.117,-0.489 -0.255,-0.615 -0.709,-0.626 v -0.17 h 2.171 v 0.16 c -0.497,0 -0.678,0.093 -0.678,0.317 0,0.148 0.179,0.974 0.393,1.761 0.263,-0.141 0.456,-0.183 0.7,-0.183 1.545,0 3.178,1.782 3.178,3.465 0,0.827 -0.464,1.324 -1.219,1.324 -0.688,0 -1.197,-0.339 -1.811,-1.196 l 0.306,1.059 0.034,0.097 c 0,0 -0.012,0.01 -0.023,0.029 L 1.641,0.391 C 1.641,0.403 1.63,0.403 1.63,0.403 L 1.609,0.391 -0.022,0.16 Z m 2.766,-0.064 c 0.454,-0.021 0.658,-0.296 0.658,-0.911 0,-0.699 -0.309,-1.61 -0.765,-2.27 -0.444,-0.625 -0.951,-0.951 -1.503,-0.951 -0.297,0 -0.509,0.159 -0.509,0.392 0,0.36 0.382,1.747 0.69,2.532 0.285,0.72 0.9,1.24 1.429,1.208" /></g><g
             transform="translate(87.024,211.656)"
             id="g776"><path
               inkscape:connector-curvature="0"
               id="path778"
               style="fill:#000000;fill-opacity:1;fill-rule:nonzero;stroke:none"
               d="m 0,0 c -0.106,-0.109 -0.148,-0.144 -0.197,-0.201 -0.214,-0.221 -0.308,-0.293 -0.371,-0.293 -0.058,0 -0.099,0.044 -0.099,0.094 0,0.14 0.297,1.362 0.633,2.589 0.023,0.071 0.029,0.085 0.044,0.148 L -0.039,2.359 -0.476,2.309 -0.497,2.287 -0.576,1.946 c -0.055,0.264 -0.263,0.415 -0.57,0.415 -0.942,0 -2.04,-1.307 -2.04,-2.434 0,-0.498 0.271,-0.792 0.727,-0.792 0.5,0 0.806,0.236 1.433,1.122 -0.141,-0.557 -0.162,-0.649 -0.162,-0.821 0,-0.207 0.085,-0.294 0.284,-0.294 0.286,0 0.463,0.137 0.99,0.785 L 0,0.001 Z m -1.103,2.203 c 0.241,-0.014 0.4,-0.187 0.4,-0.434 0,-0.601 -0.359,-1.441 -0.849,-1.97 -0.172,-0.193 -0.412,-0.315 -0.622,-0.315 -0.25,0 -0.412,0.209 -0.412,0.537 0,0.385 0.271,1.12 0.577,1.562 0.285,0.413 0.621,0.642 0.907,0.62" /></g></g></g></g></g></svg>